<svg width="216" height="35" viewBox="0 0 216 35" fill="none" xmlns="http://www.w3.org/2000/svg">
<mask id="mask0_2247_2629" style="mask-type:luminance" maskUnits="userSpaceOnUse" x="0" y="0" width="38" height="12">
<path d="M0.272705 6.69272L19.3798 -6.10352e-05L37.7027 5.05691L18.5956 11.7497L0.272705 6.69272Z" fill="white"/>
</mask>
<g mask="url(#mask0_2247_2629)">
<path d="M14.2512 5.52115L18.8128 4.53655C19.6828 4.3496 20.5835 4.25613 21.5209 4.25924C22.4553 4.26236 23.2794 4.36518 23.9901 4.56148L27.1578 5.43702L21.3341 7.47789L14.2543 5.52427M33.5513 5.22515L27.5591 3.57065C23.3866 2.42403 19.4776 2.25266 15.8289 3.05654L2.41382 6.00722C2.29434 6.03526 2.1718 6.06954 2.04007 6.11316C1.90834 6.15678 1.82256 6.22533 1.78274 6.3188C1.73985 6.41228 1.86545 6.49952 2.15342 6.57741L4.34383 7.18188C4.6318 7.26289 5.00555 7.3034 5.46201 7.30652C5.91847 7.30652 6.33817 7.26601 6.71499 7.18188L10.2717 6.40293L18.1725 8.584L15.3602 9.5686C15.0539 9.67454 14.9037 9.78982 14.9007 9.91446C14.9007 10.0391 15.0508 10.1419 15.3541 10.226L17.4434 10.8025C17.7314 10.8835 18.0806 10.9178 18.485 10.9053C18.8894 10.8928 19.2355 10.8367 19.5266 10.7339L33.4625 5.85143C33.7382 5.75484 33.8883 5.64578 33.9159 5.52115C33.9435 5.39963 33.8209 5.29993 33.5452 5.22203" fill="white"/>
</g>
<mask id="mask1_2247_2629" style="mask-type:luminance" maskUnits="userSpaceOnUse" x="18" y="5" width="21" height="30">
<path d="M18.3229 11.7279L37.43 5.03827L38.2755 28.3072L19.1684 35L18.3229 11.7279Z" fill="white"/>
</mask>
<g mask="url(#mask1_2247_2629)">
<path d="M24.3795 26.8272L24.2049 22.007L31.1866 19.5611C31.8146 19.343 32.3017 19.3897 32.6509 19.7013C33.0002 20.0129 33.1871 20.5426 33.2146 21.2904C33.2422 22.0382 33.0952 22.6831 32.7796 23.2315C32.461 23.7799 31.9892 24.16 31.3612 24.3813L24.3795 26.8272ZM24.0701 18.3241L23.923 14.3172L30.4513 12.0301C30.963 11.8494 31.3796 11.8837 31.7043 12.1299C32.026 12.376 32.1975 12.8153 32.2221 13.4447C32.2435 14.0741 32.1087 14.6194 31.8115 15.0774C31.5144 15.5354 31.11 15.8564 30.5984 16.034L24.0701 18.321M30.2675 8.24754L20.3479 11.7217C20.0293 11.8338 19.7628 12.0613 19.5453 12.4009C19.3277 12.7437 19.2236 13.0926 19.2389 13.4572L19.873 30.8995C19.8853 31.2641 20.0109 31.5352 20.2468 31.7128C20.4827 31.8904 20.7615 31.9215 21.0801 31.8125L31.5726 28.1358C33.3862 27.5002 34.8996 26.4377 36.1097 24.9514C37.3197 23.4621 37.8895 21.7048 37.816 19.6795C37.7425 17.6511 36.9062 16.4328 35.3101 16.0153C36.37 14.6038 36.8755 13.2079 36.8265 11.8307C36.7775 10.4535 36.4129 9.43155 35.739 8.771C34.5258 7.56829 32.703 7.3938 30.2675 8.24442" fill="white"/>
</g>
<mask id="mask2_2247_2629" style="mask-type:luminance" maskUnits="userSpaceOnUse" x="0" y="6" width="20" height="29">
<path d="M19.1684 35L0.845529 29.9399L0 6.67096L18.3229 11.7279L19.1684 35Z" fill="white"/>
</mask>
<g mask="url(#mask2_2247_2629)">
<path d="M16.7635 11.8713L14.0094 11.1111C13.2864 10.921 12.7319 11.2139 12.3428 11.9897L10.6364 15.3268C10.1953 16.1898 9.72045 16.7694 9.20578 17.0716C8.69417 17.3707 8.0876 17.4237 7.38912 17.2305L4.82496 16.5232L4.58294 9.84915C4.57069 9.48772 4.44815 9.14186 4.22145 8.81158C3.99169 8.48131 3.72516 8.27255 3.41268 8.18842L1.17019 7.56837C0.860779 7.48425 0.60038 7.54345 0.385935 7.75221C0.174553 7.96097 0.0734568 8.24451 0.0857109 8.60594L0.716794 25.9299C0.729048 26.2913 0.851588 26.6372 1.08441 26.9643C1.31724 27.2915 1.58683 27.4971 1.89624 27.5813L4.13873 28.2013C4.44815 28.2855 4.70855 28.2356 4.91687 28.0518C5.12825 27.8648 5.22322 27.5906 5.21096 27.2292L4.96588 20.4554L7.53004 21.1627C8.2469 21.359 8.86573 21.7672 9.39265 22.3872C9.91958 23.0073 10.4496 23.8579 10.9826 24.9453L13.222 29.4134C13.4334 29.8309 13.7245 30.2173 14.089 30.5694C14.4566 30.9246 14.7936 31.1427 15.1061 31.2299L17.8357 31.9839C18.2493 32.0992 18.4484 31.9497 18.4331 31.5415C18.4269 31.3452 18.3504 31.0959 18.2064 30.7875L15.0234 24.4187C14.5761 23.5494 14.0645 22.7175 13.4886 21.923C12.9126 21.1284 12.3612 20.5956 11.8312 20.3214C12.5695 20.3121 13.1638 20.1127 13.608 19.7232C14.0553 19.3306 14.4474 18.7884 14.7936 18.0905L17.1832 13.3264C17.3057 13.0647 17.3639 12.831 17.3578 12.616C17.3425 12.2265 17.1464 11.9773 16.7635 11.8713Z" fill="white"/>
</g>
<path d="M210.52 13.8845C210.046 13.5518 209.81 13.0816 209.81 12.4739C209.81 11.8663 210.046 11.3997 210.52 11.0742C210.996 10.7487 211.61 10.5859 212.359 10.5859H214.139C214.139 10.1627 214.051 9.86796 213.876 9.70158C213.7 9.5352 213.392 9.45201 212.951 9.45201C212.513 9.45201 212.205 9.56233 212.026 9.78296C211.85 9.99997 211.633 10.1085 211.375 10.1085H210.573C210.477 10.1085 210.396 10.0777 210.331 10.0162C210.27 9.95114 210.24 9.87157 210.24 9.77753C210.24 8.73948 211.217 8.22046 213.171 8.22046C214.024 8.22046 214.709 8.41396 215.226 8.80097C215.742 9.18436 216 9.77934 216 10.5859V13.9442C216 14.0419 215.97 14.1214 215.909 14.1829C215.848 14.2444 215.769 14.2751 215.672 14.2751H214.634C214.537 14.2751 214.458 14.2444 214.397 14.1829C214.336 14.1178 214.306 14.0382 214.306 13.9442V13.776C213.739 14.1847 213.085 14.3873 212.343 14.3837C211.604 14.3837 210.996 14.2173 210.52 13.8845ZM212.488 11.8175C212.237 11.8175 212.038 11.879 211.891 12.0019C211.748 12.1249 211.676 12.284 211.676 12.4794C211.676 12.6747 211.751 12.8356 211.902 12.9622C212.052 13.0888 212.266 13.1521 212.542 13.1521C213.094 13.1521 213.626 12.9893 214.139 12.6638V11.8175H212.488Z" fill="white"/>
<path d="M202.624 13.9442V8.66534C202.624 8.56768 202.655 8.48811 202.716 8.42662C202.78 8.36152 202.859 8.32897 202.952 8.32897H204.157C204.25 8.32897 204.327 8.36152 204.388 8.42662C204.453 8.48811 204.485 8.56768 204.485 8.66534V9.00713C205.102 8.48268 205.758 8.22046 206.454 8.22046C207.153 8.22046 207.721 8.43566 208.159 8.86608C208.596 9.29287 208.815 9.94753 208.815 10.8301V13.9442C208.815 14.0382 208.782 14.1178 208.718 14.1829C208.657 14.2444 208.578 14.2751 208.481 14.2751H207.282C207.189 14.2751 207.11 14.2444 207.045 14.1829C206.984 14.1178 206.954 14.0382 206.954 13.9442V10.8301C206.954 9.96561 206.611 9.53339 205.927 9.53339C205.478 9.53339 204.998 9.792 204.485 10.3092V13.9442C204.485 14.0382 204.453 14.1178 204.388 14.1829C204.327 14.2444 204.25 14.2751 204.157 14.2751H202.952C202.859 14.2751 202.78 14.2444 202.716 14.1829C202.655 14.1178 202.624 14.0382 202.624 13.9442Z" fill="white"/>
<path d="M199.398 7.1951V7.01063C199.398 6.81894 199.451 6.66703 199.559 6.5549C199.67 6.44278 199.822 6.38672 200.016 6.38672H200.683C200.873 6.38672 201.024 6.44278 201.135 6.5549C201.246 6.66341 201.301 6.81532 201.301 7.01063V7.1951C201.301 7.38679 201.246 7.5387 201.135 7.65082C201.027 7.76295 200.877 7.81901 200.683 7.81901H200.016C199.826 7.81901 199.675 7.76295 199.564 7.65082C199.453 7.5387 199.398 7.38679 199.398 7.1951ZM199.419 13.9442V8.79557C199.419 8.69792 199.45 8.61834 199.511 8.55686C199.575 8.49537 199.654 8.46463 199.747 8.46463H200.952C201.049 8.46463 201.128 8.49718 201.189 8.56228C201.249 8.62377 201.28 8.70153 201.28 8.79557V13.9442C201.28 14.0419 201.248 14.1215 201.183 14.1829C201.122 14.2444 201.045 14.2752 200.952 14.2752H199.747C199.65 14.2752 199.571 14.2444 199.511 14.1829C199.45 14.1215 199.419 14.0419 199.419 13.9442Z" fill="white"/>
<path d="M191.879 13.9442V8.66534C191.879 8.56768 191.91 8.48811 191.97 8.42662C192.035 8.36152 192.114 8.32897 192.207 8.32897H193.412C193.505 8.32897 193.582 8.36152 193.643 8.42662C193.708 8.48811 193.74 8.56768 193.74 8.66534V9.00713C194.357 8.48268 195.013 8.22046 195.708 8.22046C196.407 8.22046 196.976 8.43566 197.413 8.86608C197.851 9.29287 198.069 9.94753 198.069 10.8301V13.9442C198.069 14.0382 198.037 14.1178 197.973 14.1829C197.912 14.2444 197.833 14.2751 197.736 14.2751H196.537C196.443 14.2751 196.364 14.2444 196.3 14.1829C196.239 14.1178 196.208 14.0382 196.208 13.9442V10.8301C196.208 9.96561 195.866 9.53339 195.181 9.53339C194.733 9.53339 194.253 9.792 193.74 10.3092V13.9442C193.74 14.0382 193.708 14.1178 193.643 14.1829C193.582 14.2444 193.505 14.2751 193.412 14.2751H192.207C192.114 14.2751 192.035 14.2444 191.97 14.1829C191.91 14.1178 191.879 14.0382 191.879 13.9442Z" fill="white"/>
<path d="M188.652 7.1951V7.01063C188.652 6.81894 188.706 6.66703 188.813 6.5549C188.925 6.44278 189.077 6.38672 189.271 6.38672H189.937C190.128 6.38672 190.278 6.44278 190.389 6.5549C190.5 6.66341 190.556 6.81532 190.556 7.01063V7.1951C190.556 7.38679 190.5 7.5387 190.389 7.65082C190.282 7.76295 190.131 7.81901 189.937 7.81901H189.271C189.081 7.81901 188.93 7.76295 188.819 7.65082C188.708 7.5387 188.652 7.38679 188.652 7.1951ZM188.674 13.9442V8.79557C188.674 8.69792 188.704 8.61834 188.765 8.55686C188.83 8.49537 188.908 8.46463 189.002 8.46463H190.206C190.303 8.46463 190.382 8.49718 190.443 8.56228C190.504 8.62377 190.534 8.70153 190.534 8.79557V13.9442C190.534 14.0419 190.502 14.1215 190.438 14.1829C190.377 14.2444 190.3 14.2752 190.206 14.2752H189.002C188.905 14.2752 188.826 14.2444 188.765 14.1829C188.704 14.1215 188.674 14.0419 188.674 13.9442Z" fill="white"/>
<path d="M185.468 13.9442V6.83161C185.468 6.73395 185.498 6.65438 185.559 6.5929C185.624 6.52779 185.703 6.49524 185.796 6.49524H187.001C187.094 6.49524 187.171 6.52779 187.232 6.5929C187.297 6.65438 187.329 6.73395 187.329 6.83161V13.9442C187.329 14.0383 187.297 14.1179 187.232 14.183C187.171 14.2444 187.094 14.2752 187.001 14.2752H185.796C185.703 14.2752 185.624 14.2444 185.559 14.183C185.498 14.1179 185.468 14.0383 185.468 13.9442Z" fill="white"/>
<path d="M178.659 13.8845C178.186 13.5518 177.949 13.0816 177.949 12.4739C177.949 11.8663 178.186 11.3997 178.659 11.0742C179.136 10.7487 179.749 10.5859 180.499 10.5859H182.279C182.279 10.1627 182.191 9.86796 182.015 9.70158C181.84 9.5352 181.531 9.45201 181.09 9.45201C180.653 9.45201 180.345 9.56233 180.165 9.78296C179.99 9.99997 179.773 10.1085 179.515 10.1085H178.713C178.616 10.1085 178.536 10.0777 178.471 10.0162C178.41 9.95114 178.38 9.87157 178.38 9.77753C178.38 8.73948 179.357 8.22046 181.311 8.22046C182.164 8.22046 182.849 8.41396 183.365 8.80097C183.882 9.18436 184.14 9.77934 184.14 10.5859V13.9442C184.14 14.0419 184.109 14.1214 184.048 14.1829C183.987 14.2444 183.908 14.2751 183.812 14.2751H182.774C182.677 14.2751 182.598 14.2444 182.537 14.1829C182.476 14.1178 182.446 14.0382 182.446 13.9442V13.776C181.879 14.1847 181.225 14.3873 180.483 14.3837C179.744 14.3837 179.136 14.2173 178.659 13.8845ZM180.628 11.8175C180.377 11.8175 180.178 11.879 180.031 12.0019C179.887 12.1249 179.816 12.284 179.816 12.4794C179.816 12.6747 179.891 12.8356 180.042 12.9622C180.192 13.0888 180.406 13.1521 180.682 13.1521C181.234 13.1521 181.766 12.9893 182.279 12.6638V11.8175H180.628Z" fill="white"/>
<path d="M177.616 14.0365C177.616 14.1956 177.523 14.2752 177.336 14.2752H176.105C175.965 14.2752 175.814 14.2263 175.653 14.1287C175.491 14.0274 175.366 13.9063 175.276 13.7652L174.33 12.2515C174.104 11.8826 173.876 11.6059 173.647 11.4214C173.417 11.2334 173.141 11.1393 172.819 11.1393H171.662V13.776C171.662 13.9171 171.612 14.0365 171.512 14.1341C171.415 14.2282 171.297 14.2752 171.157 14.2752H170.146C170.006 14.2752 169.886 14.2245 169.785 14.1233C169.685 14.0184 169.635 13.8954 169.635 13.7543V7.01063C169.635 6.86957 169.685 6.7466 169.785 6.64171C169.886 6.53682 170.006 6.48438 170.146 6.48438H171.157C171.297 6.48438 171.415 6.53682 171.512 6.64171C171.612 6.7466 171.662 6.86957 171.662 7.01063V9.60938H172.819C173.134 9.60938 173.41 9.52257 173.647 9.34896C173.887 9.17535 174.115 8.89504 174.33 8.50803L175.163 7.01063C175.353 6.66341 175.612 6.48799 175.938 6.48438H177.18C177.352 6.48438 177.438 6.56033 177.438 6.71224C177.438 6.79543 177.408 6.89489 177.347 7.01063L176.18 9.1428C176.011 9.45385 175.821 9.71065 175.61 9.91319C175.402 10.1157 175.129 10.2586 174.792 10.3418C175.029 10.3924 175.271 10.5425 175.518 10.7921C175.769 11.0417 175.99 11.3129 176.18 11.6059L177.524 13.7652C177.585 13.8701 177.616 13.9605 177.616 14.0365Z" fill="white"/>
<path d="M158.857 13.8845C158.383 13.5518 158.147 13.0816 158.147 12.4739C158.147 11.8663 158.383 11.3997 158.857 11.0742C159.334 10.7487 159.947 10.5859 160.696 10.5859H162.476C162.476 10.1627 162.388 9.86796 162.213 9.70158C162.037 9.5352 161.729 9.45201 161.288 9.45201C160.85 9.45201 160.542 9.56233 160.363 9.78296C160.187 9.99997 159.97 10.1085 159.712 10.1085H158.91C158.814 10.1085 158.733 10.0777 158.668 10.0162C158.607 9.95114 158.577 9.87157 158.577 9.77753C158.577 8.73948 159.554 8.22046 161.508 8.22046C162.361 8.22046 163.046 8.41396 163.563 8.80097C164.079 9.18436 164.337 9.77934 164.337 10.5859V13.9442C164.337 14.0419 164.307 14.1214 164.246 14.1829C164.185 14.2444 164.106 14.2751 164.009 14.2751H162.971C162.874 14.2751 162.795 14.2444 162.734 14.1829C162.673 14.1178 162.643 14.0382 162.643 13.9442V13.776C162.076 14.1847 161.422 14.3873 160.68 14.3837C159.941 14.3837 159.334 14.2173 158.857 13.8845ZM160.825 11.8175C160.574 11.8175 160.375 11.879 160.228 12.0019C160.085 12.1249 160.013 12.284 160.013 12.4794C160.013 12.6747 160.088 12.8356 160.239 12.9622C160.389 13.0888 160.603 13.1521 160.879 13.1521C161.431 13.1521 161.963 12.9893 162.476 12.6638V11.8175H160.825Z" fill="white"/>
<path d="M150.962 13.9442V8.66534C150.962 8.56768 150.992 8.48811 151.053 8.42662C151.118 8.36152 151.196 8.32897 151.29 8.32897H152.494C152.588 8.32897 152.665 8.36152 152.726 8.42662C152.79 8.48811 152.822 8.56768 152.822 8.66534V9.00713C153.439 8.48268 154.095 8.22046 154.791 8.22046C155.49 8.22046 156.058 8.43566 156.496 8.86608C156.933 9.29287 157.152 9.94753 157.152 10.8301V13.9442C157.152 14.0382 157.12 14.1178 157.055 14.1829C156.994 14.2444 156.915 14.2751 156.818 14.2751H155.619C155.526 14.2751 155.447 14.2444 155.382 14.1829C155.321 14.1178 155.291 14.0382 155.291 13.9442V10.8301C155.291 9.96561 154.949 9.53339 154.264 9.53339C153.816 9.53339 153.335 9.792 152.822 10.3092V13.9442C152.822 14.0382 152.79 14.1178 152.726 14.1829C152.665 14.2444 152.588 14.2751 152.494 14.2751H151.29C151.196 14.2751 151.118 14.2444 151.053 14.1829C150.992 14.1178 150.962 14.0382 150.962 13.9442Z" fill="white"/>
<path d="M143.443 13.9442V8.66534C143.443 8.56768 143.473 8.48811 143.534 8.42662C143.599 8.36152 143.678 8.32897 143.771 8.32897H144.976C145.069 8.32897 145.146 8.36152 145.207 8.42662C145.272 8.48811 145.304 8.56768 145.304 8.66534V9.00713C145.921 8.48268 146.577 8.22046 147.272 8.22046C147.971 8.22046 148.54 8.43566 148.977 8.86608C149.415 9.29287 149.633 9.94753 149.633 10.8301V13.9442C149.633 14.0382 149.601 14.1178 149.536 14.1829C149.476 14.2444 149.397 14.2751 149.3 14.2751H148.101C148.007 14.2751 147.928 14.2444 147.864 14.1829C147.803 14.1178 147.772 14.0382 147.772 13.9442V10.8301C147.772 9.96561 147.43 9.53339 146.745 9.53339C146.297 9.53339 145.817 9.792 145.304 10.3092V13.9442C145.304 14.0382 145.272 14.1178 145.207 14.1829C145.146 14.2444 145.069 14.2751 144.976 14.2751H143.771C143.678 14.2751 143.599 14.2444 143.534 14.1829C143.473 14.1178 143.443 14.0382 143.443 13.9442Z" fill="white"/>
<path d="M133.73 13.7761L135.08 8.61112C135.446 7.20415 136.636 6.49886 138.651 6.49524H141.55C141.683 6.49524 141.792 6.54588 141.878 6.64715C141.968 6.74842 142.012 6.86597 142.012 6.9998V13.7761C142.012 13.9171 141.962 14.0365 141.862 14.1341C141.761 14.2282 141.641 14.2752 141.501 14.2752H140.49C140.343 14.2752 140.221 14.2282 140.125 14.1341C140.031 14.0365 139.985 13.9135 139.985 13.7652V12.398H136.161L135.801 13.7652C135.765 13.9135 135.684 14.0365 135.559 14.1341C135.433 14.2282 135.3 14.2752 135.161 14.2752H134.101C133.961 14.2752 133.861 14.2354 133.8 14.1558C133.739 14.0726 133.708 14.0003 133.708 13.9388C133.712 13.8773 133.719 13.8231 133.73 13.7761ZM136.559 10.8626H139.985V8.03061H138.452C138.108 8.03061 137.807 8.13008 137.549 8.32901C137.294 8.52432 137.122 8.78835 137.032 9.12111L136.559 10.8626Z" fill="white"/>
<path d="M124.582 14.8395L125.286 14.9317C125.792 14.9317 126.145 14.5573 126.346 13.8086C125.736 13.8086 125.227 13.6242 124.818 13.2553C124.409 12.8827 124.058 12.2226 123.764 11.275L122.963 8.65456C122.952 8.62563 122.947 8.59307 122.947 8.55691C122.947 8.51712 122.968 8.4701 123.011 8.41585C123.058 8.36159 123.126 8.33266 123.215 8.32904H124.339C124.443 8.32904 124.542 8.36521 124.635 8.43755C124.732 8.50627 124.795 8.59307 124.824 8.69796L125.528 10.9983C125.704 11.5625 125.881 11.9532 126.061 12.1702C126.243 12.3872 126.458 12.4957 126.706 12.4957L127.776 8.69796C127.805 8.59307 127.86 8.50627 127.943 8.43755C128.029 8.36521 128.124 8.32904 128.228 8.32904H129.363C129.452 8.32904 129.519 8.35798 129.562 8.41585C129.605 8.47372 129.626 8.52254 129.626 8.56233C129.626 8.5985 129.623 8.62924 129.615 8.65456L128.206 13.7218C127.955 14.6188 127.643 15.259 127.271 15.6424C126.901 16.0258 126.424 16.2175 125.84 16.2175C125.256 16.2175 124.841 16.1958 124.598 16.1524C124.357 16.109 124.207 16.0547 124.146 15.9896C124.085 15.9281 124.054 15.8558 124.054 15.7726V15.1758C124.054 15.0782 124.085 14.9968 124.146 14.9317C124.207 14.8702 124.286 14.8395 124.383 14.8395H124.582Z" fill="white"/>
<path d="M116.251 6.83161C116.251 6.73395 116.281 6.65438 116.342 6.5929C116.407 6.52779 116.486 6.49524 116.579 6.49524H117.784C117.877 6.49524 117.954 6.52779 118.015 6.5929C118.08 6.65438 118.112 6.73395 118.112 6.83161V8.49719C118.693 8.31273 119.211 8.2205 119.666 8.2205C120.548 8.2205 121.249 8.48634 121.769 9.01803C122.289 9.54609 122.549 10.3093 122.549 11.3075C122.549 13.3583 121.41 14.3837 119.134 14.3837C118.614 14.3837 118.074 14.3258 117.515 14.2101C116.959 14.0907 116.538 13.946 116.251 13.7761V6.83161ZM118.112 9.75045V12.9514C118.42 13.0346 118.813 13.0762 119.29 13.0762C119.767 13.0762 120.109 12.9369 120.317 12.6584C120.528 12.3799 120.634 11.9296 120.634 11.3075C120.634 10.6854 120.53 10.2351 120.322 9.95661C120.118 9.67449 119.77 9.53343 119.279 9.53343C118.963 9.53343 118.574 9.60577 118.112 9.75045Z" fill="white"/>
<path d="M105.096 15.7725V8.66534C105.096 8.56768 105.127 8.48811 105.188 8.42662C105.252 8.36152 105.331 8.32897 105.424 8.32897H106.462C106.556 8.32897 106.633 8.36152 106.694 8.42662C106.758 8.48811 106.79 8.56768 106.79 8.66534V8.8281C107.357 8.42301 108.015 8.22046 108.764 8.22046C109.514 8.22046 110.139 8.48811 110.641 9.02341C111.143 9.55509 111.394 10.3183 111.394 11.3129C111.394 12.3039 111.134 13.0635 110.614 13.5916C110.094 14.1196 109.393 14.3837 108.511 14.3837C108.056 14.3837 107.538 14.2914 106.957 14.107V15.7725C106.957 15.8702 106.925 15.9498 106.86 16.0113C106.799 16.0764 106.722 16.1089 106.629 16.1089H105.424C105.331 16.1089 105.252 16.0764 105.188 16.0113C105.127 15.9498 105.096 15.8702 105.096 15.7725ZM106.957 12.8537C107.42 13.002 107.809 13.0761 108.124 13.0761C108.615 13.0761 108.963 12.9351 109.168 12.653C109.376 12.3708 109.48 11.9205 109.48 11.3021C109.48 10.6836 109.381 10.2351 109.184 9.95657C108.99 9.67445 108.698 9.53339 108.307 9.53339C107.92 9.53339 107.47 9.69615 106.957 10.0217V12.8537Z" fill="white"/>
<path d="M97.5779 11.7741V8.66541C97.5779 8.56776 97.6084 8.48818 97.6693 8.4267C97.7338 8.36159 97.8127 8.32904 97.906 8.32904H99.1107C99.2039 8.32904 99.281 8.36159 99.3419 8.4267C99.4065 8.48818 99.4387 8.56776 99.4387 8.66541V11.7741C99.4387 12.6422 99.7794 13.0762 100.461 13.0762C100.909 13.0762 101.391 12.8158 101.907 12.295V8.66541C101.907 8.56776 101.938 8.48818 101.999 8.4267C102.063 8.36159 102.142 8.32904 102.235 8.32904H103.435C103.532 8.32904 103.61 8.36159 103.671 8.4267C103.736 8.48818 103.768 8.56776 103.768 8.66541V13.9443C103.768 14.0383 103.736 14.1179 103.671 14.183C103.61 14.2445 103.532 14.2752 103.435 14.2752H102.235C102.142 14.2752 102.063 14.2445 101.999 14.183C101.938 14.1179 101.907 14.0383 101.907 13.9443V13.5971C101.291 14.1215 100.633 14.3837 99.9335 14.3837C99.2379 14.3837 98.6714 14.1703 98.234 13.7435C97.7966 13.3131 97.5779 12.6567 97.5779 11.7741Z" fill="white"/>
<path d="M90.9194 13.6024C90.3601 13.0816 90.0804 12.3148 90.0804 11.3021C90.0804 10.2857 90.3601 9.51893 90.9194 9.00171C91.4788 8.48088 92.2819 8.22046 93.3289 8.22046C94.3794 8.22046 95.1843 8.48088 95.7437 9.00171C96.303 9.51893 96.5827 10.2857 96.5827 11.3021C96.5827 12.3148 96.303 13.0816 95.7437 13.6024C95.1843 14.1232 94.3794 14.3837 93.3289 14.3837C92.2819 14.3837 91.4788 14.1232 90.9194 13.6024ZM92.2801 9.89147C92.0578 10.1844 91.9467 10.6528 91.9467 11.2966C91.9467 11.9404 92.0578 12.4106 92.2801 12.7072C92.5024 13.0038 92.852 13.1521 93.3289 13.1521C93.8093 13.1521 94.1607 13.0038 94.383 12.7072C94.6089 12.4106 94.7218 11.9404 94.7218 11.2966C94.7218 10.6528 94.6089 10.1844 94.383 9.89147C94.1607 9.5985 93.8093 9.45201 93.3289 9.45201C92.852 9.45201 92.5024 9.5985 92.2801 9.89147Z" fill="white"/>
<path d="M89.134 9.707L88.3058 9.67445C87.8218 9.67445 87.3592 9.9421 86.9182 10.4774V13.9442C86.9182 14.0419 86.886 14.1214 86.8214 14.1829C86.7605 14.2444 86.6834 14.2751 86.5902 14.2751H85.3854C85.2886 14.2751 85.2098 14.2444 85.1488 14.1829C85.0878 14.1214 85.0574 14.0419 85.0574 13.9442V8.66534C85.0574 8.56768 85.0878 8.48811 85.1488 8.42662C85.2133 8.36152 85.2922 8.32897 85.3854 8.32897H86.5902C86.687 8.32897 86.7658 8.36152 86.8268 8.42662C86.8877 8.48811 86.9182 8.56768 86.9182 8.66534V9.00713C87.2839 8.73948 87.6353 8.54236 87.9724 8.41577C88.313 8.28556 88.7576 8.22046 89.3061 8.22046C89.4029 8.22046 89.4818 8.25301 89.5428 8.31812C89.6073 8.3796 89.6396 8.45737 89.6396 8.55141V9.37606C89.6396 9.47371 89.6073 9.55329 89.5428 9.61477C89.4818 9.67626 89.4029 9.707 89.3061 9.707H89.134Z" fill="white"/>
<path d="M80.2602 13.8194C79.4463 13.8194 78.7884 13.5717 78.2864 13.0761C77.788 12.5806 77.5388 11.8934 77.5388 11.0145C77.5388 10.1356 77.8239 9.4502 78.394 8.95831C78.964 8.46641 79.7815 8.22046 80.8464 8.22046C81.3663 8.22046 81.9059 8.28014 82.4652 8.3995C83.0246 8.51524 83.4459 8.6581 83.7291 8.8281V13.852C83.7291 14.6585 83.4656 15.2535 82.9385 15.6369C82.4115 16.0239 81.6711 16.2174 80.7173 16.2174C79.7672 16.2174 79.034 16.0963 78.5176 15.8539C78.0049 15.6152 77.7486 15.2192 77.7486 14.6658C77.7486 14.5681 77.779 14.4867 77.84 14.4216C77.9045 14.3601 77.9852 14.3294 78.082 14.3294H78.8834C79.1415 14.3294 79.3477 14.4252 79.5019 14.6169C79.6991 14.8629 80.0486 14.9859 80.5506 14.9859C81.0562 14.9859 81.4022 14.9027 81.5886 14.7363C81.775 14.5699 81.8683 14.2751 81.8683 13.852V13.597C81.2946 13.7453 80.7586 13.8194 80.2602 13.8194ZM80.7335 9.53339C79.8837 9.52978 79.4588 10.0253 79.4588 11.0199C79.4588 12.011 79.873 12.5065 80.7012 12.5065C81.0454 12.5065 81.4344 12.4522 81.8683 12.3437V9.65275C81.5599 9.56956 81.1816 9.52978 80.7335 9.53339Z" fill="white"/>
<path d="M65.0289 7.01065C65.0289 6.86959 65.0791 6.74842 65.1795 6.64715C65.2799 6.54588 65.4 6.49524 65.5399 6.49524H69.9123C70.9844 6.49524 71.775 6.80629 72.2841 7.4284C72.5674 7.772 72.709 8.21146 72.709 8.74676C72.709 9.27844 72.467 9.74321 71.9829 10.1411C72.6713 10.5136 73.0155 11.0923 73.0155 11.8772C73.0155 12.6621 72.7395 13.2588 72.1873 13.6675C71.6387 14.0726 70.9647 14.2752 70.1651 14.2752H65.5399C65.4 14.2752 65.2799 14.2264 65.1795 14.1287C65.0791 14.0274 65.0289 13.9063 65.0289 13.7652V7.01065ZM67.0565 12.8103H70.1328C70.4089 12.8103 70.6205 12.7272 70.7675 12.5608C70.9145 12.3944 70.988 12.1665 70.988 11.8772C70.988 11.5878 70.9145 11.36 70.7675 11.1936C70.6205 11.0272 70.4089 10.944 70.1328 10.944H67.0565V12.8103ZM67.0565 9.51716H69.9338C70.1597 9.51716 70.3408 9.45024 70.477 9.31642C70.6133 9.17898 70.6814 8.98909 70.6814 8.74676C70.6814 8.50081 70.6133 8.30911 70.477 8.17167C70.3408 8.03423 70.1597 7.96551 69.9338 7.96551H67.0565V9.51716Z" fill="white"/>
<path d="M55.2084 13.7761L56.5583 8.61112C56.924 7.20415 58.1144 6.49886 60.1294 6.49524H63.0283C63.161 6.49524 63.2703 6.54588 63.3564 6.64715C63.446 6.74842 63.4908 6.86597 63.4908 6.9998V13.7761C63.4908 13.9171 63.4406 14.0365 63.3402 14.1341C63.2398 14.2282 63.1197 14.2752 62.9799 14.2752H61.9688C61.8218 14.2752 61.6999 14.2282 61.6031 14.1341C61.5098 14.0365 61.4632 13.9135 61.4632 13.7652V12.398H57.6393L57.279 13.7652C57.2432 13.9135 57.1625 14.0365 57.037 14.1341C56.9115 14.2282 56.7788 14.2752 56.639 14.2752H55.5795C55.4397 14.2752 55.3393 14.2354 55.2783 14.1558C55.2174 14.0726 55.1869 14.0003 55.1869 13.9388C55.1905 13.8773 55.1976 13.8231 55.2084 13.7761ZM58.0373 10.8626H61.4632V8.03061H59.9305C59.5862 8.03061 59.2851 8.13008 59.0269 8.32901C58.7723 8.52432 58.6002 8.78835 58.5106 9.12111L58.0373 10.8626Z" fill="white"/>
<path d="M55.0685 14.0365C55.0685 14.1956 54.9753 14.2752 54.7888 14.2752H53.5572C53.4174 14.2752 53.2668 14.2263 53.1055 14.1287C52.9441 14.0274 52.8186 13.9063 52.729 13.7652L51.7824 12.2515C51.5566 11.8826 51.3289 11.6059 51.0994 11.4214C50.8699 11.2334 50.5939 11.1393 50.2712 11.1393H49.1149V13.776C49.1149 13.9171 49.0647 14.0365 48.9643 14.1341C48.8675 14.2282 48.7491 14.2752 48.6093 14.2752H47.5982C47.4584 14.2752 47.3383 14.2245 47.2379 14.1233C47.1375 14.0184 47.0873 13.8954 47.0873 13.7543V7.01063C47.0873 6.86957 47.1375 6.7466 47.2379 6.64171C47.3383 6.53682 47.4584 6.48438 47.5982 6.48438H48.6093C48.7491 6.48438 48.8675 6.53682 48.9643 6.64171C49.0647 6.7466 49.1149 6.86957 49.1149 7.01063V9.60938H50.2712C50.5867 9.60938 50.8628 9.52257 51.0994 9.34896C51.3396 9.17535 51.5673 8.89504 51.7824 8.50803L52.6161 7.01063C52.8061 6.66341 53.0642 6.48799 53.3905 6.48438H54.6329C54.805 6.48438 54.891 6.56033 54.891 6.71224C54.891 6.79543 54.8606 6.89489 54.7996 7.01063L53.6325 9.1428C53.464 9.45385 53.274 9.71065 53.0624 9.91319C52.8545 10.1157 52.582 10.2586 52.245 10.3418C52.4816 10.3924 52.7236 10.5425 52.971 10.7921C53.222 11.0417 53.4425 11.3129 53.6325 11.6059L54.9771 13.7652C55.038 13.8701 55.0685 13.9605 55.0685 14.0365Z" fill="white"/>
<path d="M178.956 22.5803V23.2053H177.515V27.0941H176.766V23.2053H175.325V22.5803H178.956Z" fill="white"/>
<path d="M170.88 27.0941V22.5803H171.629V25.9353H171.99L171.478 26.2131L173.892 22.5803H174.632V27.0941H173.883V23.7391H173.522L174.034 23.4613L171.62 27.0941H170.88Z" fill="white"/>
<path d="M166.04 28.3311H165.343V26.4691H165.717C165.881 26.3592 166.004 26.1769 166.087 25.9223C166.173 25.6676 166.226 25.3884 166.247 25.0846L166.419 22.5803H169.499V26.4691H170.209V28.3311H169.512V27.0941H166.04V28.3311ZM168.751 26.4691V23.2053H167.077L166.939 25.102C166.919 25.3855 166.879 25.6459 166.819 25.8832C166.759 26.1176 166.673 26.3071 166.561 26.4518V26.4691H168.751Z" fill="white"/>
<path d="M162.021 28.6132C161.949 28.6132 161.876 28.6089 161.802 28.6002C161.73 28.5944 161.67 28.5872 161.621 28.5785V27.9622C161.653 27.968 161.688 27.9738 161.729 27.9796C161.772 27.9854 161.816 27.9882 161.862 27.9882C162.1 27.9882 162.289 27.9463 162.43 27.8624C162.573 27.7785 162.69 27.6092 162.778 27.3546L162.869 27.0985L161.208 22.5803H162.008L163.299 26.5126L163.14 26.3389H163.364L163.204 26.5126L164.499 22.5803H165.287L163.54 27.3763C163.434 27.6627 163.315 27.8971 163.183 28.0794C163.051 28.2617 162.892 28.3962 162.705 28.483C162.519 28.5698 162.291 28.6132 162.021 28.6132Z" fill="white"/>
<path d="M155.869 27.0941L158.179 20.8311H158.751V21.7686H158.553L156.682 27.0941H155.869ZM156.927 25.3016L157.185 24.6375H159.939L160.197 25.3016H156.927ZM160.438 27.0941L158.571 21.7686V20.8311H158.945L161.251 27.0941H160.438Z" fill="white"/>
<path d="M153.915 20.8311L152.164 28.6132H151.45L153.201 20.8311H153.915Z" fill="white"/>
<path d="M145.366 27.0941V22.5803H146.115V25.9353H146.476L145.964 26.2131L148.378 22.5803H149.118V27.0941H148.369V23.7391H148.008L148.52 23.4613L146.106 27.0941H145.366Z" fill="white"/>
<path d="M144.553 23.2053H142.423V27.0941H141.675V22.5803H144.553V23.2053Z" fill="white"/>
<path d="M138.766 27.181C138.353 27.181 137.99 27.0855 137.678 26.8945C137.368 26.7035 137.125 26.433 136.95 26.0829C136.778 25.7299 136.692 25.3146 136.692 24.8372V24.8285C136.692 24.3482 136.778 23.9344 136.95 23.5872C137.125 23.2371 137.368 22.968 137.678 22.7799C137.99 22.589 138.352 22.4935 138.762 22.4935C139.175 22.4935 139.536 22.589 139.846 22.7799C140.159 22.968 140.401 23.2371 140.573 23.5872C140.748 23.9344 140.836 24.3482 140.836 24.8285V24.8372C140.836 25.3175 140.748 25.7328 140.573 26.0829C140.401 26.433 140.16 26.7035 139.85 26.8945C139.541 27.0855 139.179 27.181 138.766 27.181ZM138.77 26.5126C139.034 26.5126 139.262 26.4475 139.454 26.3173C139.65 26.1842 139.8 25.9932 139.906 25.7443C140.015 25.4926 140.07 25.1902 140.07 24.8372V24.8285C140.07 24.4755 140.015 24.1746 139.906 23.9258C139.8 23.6769 139.648 23.4874 139.45 23.3572C139.255 23.227 139.026 23.1619 138.762 23.1619C138.504 23.1619 138.276 23.2284 138.078 23.3615C137.883 23.4917 137.731 23.6813 137.622 23.9301C137.513 24.1761 137.458 24.4755 137.458 24.8285V24.8372C137.458 25.1902 137.513 25.4926 137.622 25.7443C137.731 25.9932 137.883 26.1842 138.078 26.3173C138.276 26.4475 138.507 26.5126 138.77 26.5126Z" fill="white"/>
<path d="M133.237 25.1063C133.206 25.5201 133.146 25.8803 133.057 26.187C132.971 26.4909 132.836 26.7252 132.652 26.8902C132.472 27.0551 132.222 27.1376 131.904 27.1376C131.832 27.1376 131.769 27.1332 131.714 27.1245C131.663 27.1159 131.621 27.1057 131.59 27.0941V26.4127C131.61 26.4185 131.64 26.4257 131.68 26.4344C131.72 26.4402 131.769 26.4431 131.826 26.4431C131.987 26.4431 132.115 26.3881 132.209 26.2782C132.304 26.1682 132.376 26.012 132.424 25.8094C132.473 25.604 132.507 25.3638 132.528 25.0889L132.704 22.5803H135.849V27.0941H135.1V23.2053H133.379L133.237 25.1063Z" fill="white"/>
<path d="M128.797 27.181C128.502 27.181 128.242 27.1245 128.018 27.0117C127.795 26.8989 127.62 26.7397 127.493 26.5343C127.37 26.3288 127.308 26.0901 127.308 25.8181V25.8094C127.308 25.5519 127.372 25.3291 127.498 25.141C127.627 24.953 127.812 24.8039 128.053 24.694C128.297 24.584 128.589 24.5189 128.931 24.4987L130.587 24.4032V24.9891L129.017 25.0846C128.718 25.102 128.486 25.1743 128.32 25.3016C128.156 25.4289 128.074 25.5982 128.074 25.8094V25.8181C128.074 26.0351 128.155 26.2073 128.315 26.3346C128.479 26.4619 128.695 26.5256 128.965 26.5256C129.2 26.5256 129.411 26.4764 129.597 26.378C129.787 26.2767 129.936 26.1393 130.045 25.9657C130.157 25.7921 130.213 25.5968 130.213 25.3798V24.0473C130.213 23.7724 130.127 23.5568 129.955 23.4006C129.785 23.2414 129.544 23.1619 129.232 23.1619C128.945 23.1619 128.713 23.2255 128.535 23.3528C128.36 23.4773 128.251 23.6407 128.208 23.8433L128.199 23.8824H127.476L127.481 23.8346C127.504 23.5858 127.587 23.3601 127.73 23.1575C127.876 22.955 128.077 22.7944 128.332 22.6758C128.588 22.5542 128.89 22.4935 129.24 22.4935C129.593 22.4935 129.897 22.5542 130.152 22.6758C130.411 22.7973 130.61 22.9695 130.751 23.1923C130.891 23.4122 130.961 23.6726 130.961 23.9735V27.0942H130.213V26.3607H130.195C130.109 26.5256 129.995 26.6703 129.851 26.7947C129.708 26.9162 129.546 27.0117 129.365 27.0811C129.187 27.1477 128.998 27.181 128.797 27.181Z" fill="white"/>
<path d="M121.358 27.0941V20.8311H122.132V23.5394H125.54V20.8311H126.314V27.0941H125.54V24.2426H122.132V27.0941H121.358Z" fill="white"/>
<path d="M118.91 20.8311L117.159 28.6132H116.444L118.196 20.8311H118.91Z" fill="white"/>
<path d="M114.47 22.5803V23.2053H113.028V27.0941H112.28V23.2053H110.838V22.5803H114.47Z" fill="white"/>
<path d="M108.61 27.181C108.182 27.181 107.814 27.0855 107.504 26.8945C107.197 26.7035 106.96 26.4344 106.794 26.0872C106.63 25.7371 106.549 25.3262 106.549 24.8546V24.8502C106.549 24.3844 106.632 23.975 106.798 23.6219C106.965 23.266 107.198 22.9897 107.5 22.7929C107.801 22.5933 108.155 22.4935 108.562 22.4935C108.97 22.4935 109.32 22.589 109.612 22.7799C109.908 22.968 110.134 23.2328 110.292 23.5742C110.45 23.9156 110.529 24.312 110.529 24.7634V25.0412H106.923V24.4509H110.159L109.78 24.9978V24.707C109.78 24.3569 109.727 24.0675 109.621 23.839C109.517 23.6104 109.374 23.4411 109.19 23.3311C109.007 23.2183 108.796 23.1619 108.558 23.1619C108.32 23.1619 108.106 23.2212 107.917 23.3398C107.728 23.4556 107.578 23.6292 107.469 23.8607C107.36 24.0892 107.306 24.3714 107.306 24.707V24.9978C107.306 25.3161 107.359 25.5881 107.465 25.8138C107.574 26.0395 107.728 26.2131 107.926 26.3346C108.123 26.4532 108.357 26.5126 108.627 26.5126C108.816 26.5126 108.985 26.4836 109.135 26.4258C109.284 26.3679 109.408 26.2883 109.509 26.187C109.609 26.0858 109.681 25.97 109.724 25.8398L109.737 25.8008H110.473L110.464 25.8442C110.427 26.0293 110.355 26.203 110.249 26.365C110.146 26.527 110.012 26.6703 109.849 26.7947C109.685 26.9162 109.499 27.0117 109.289 27.0811C109.08 27.1477 108.853 27.181 108.61 27.181Z" fill="white"/>
<path d="M105.71 27.0941H104.961V25.1193H104.944C104.803 25.2437 104.633 25.3378 104.432 25.4014C104.234 25.4651 104.029 25.4969 103.816 25.4969C103.28 25.4969 102.874 25.3551 102.599 25.0716C102.323 24.7851 102.186 24.4017 102.186 23.9214V22.5803H102.934V23.8693C102.934 24.1905 103.019 24.4307 103.188 24.5898C103.36 24.749 103.617 24.8285 103.958 24.8285C104.09 24.8285 104.219 24.8141 104.346 24.7851C104.475 24.7562 104.592 24.7157 104.698 24.6636C104.805 24.6115 104.892 24.5507 104.961 24.4813V22.5803H105.71V27.0941Z" fill="white"/>
<path d="M98.3609 28.6132C98.2892 28.6132 98.2161 28.6089 98.1415 28.6002C98.0698 28.5944 98.0095 28.5872 97.9608 28.5785V27.9622C97.9923 27.968 98.0282 27.9738 98.0683 27.9796C98.1114 27.9854 98.1558 27.9882 98.2017 27.9882C98.4398 27.9882 98.6291 27.9463 98.7697 27.8624C98.9131 27.7785 99.0292 27.6092 99.1182 27.3546L99.2085 27.0985L97.5477 22.5803H98.348L99.6388 26.5126L99.4796 26.3389H99.7033L99.5441 26.5126L100.839 22.5803H101.627L99.8797 27.3763C99.7736 27.6627 99.6545 27.8971 99.5226 28.0794C99.3907 28.2617 99.2315 28.3962 99.045 28.483C98.8586 28.5698 98.6305 28.6132 98.3609 28.6132Z" fill="white"/>
<path d="M93.3654 27.0941L94.8885 24.8372L93.3912 22.5803H94.2259L95.3015 24.273H95.3187L96.3814 22.5803H97.2161L95.7059 24.8068L97.1946 27.0941H96.3642L95.2929 25.3754H95.2757L94.1957 27.0941H93.3654Z" fill="white"/>
<path d="M89.7729 28.6132C89.7012 28.6132 89.628 28.6089 89.5535 28.6002C89.4818 28.5944 89.4215 28.5872 89.3728 28.5785V27.9622C89.4043 27.968 89.4402 27.9738 89.4803 27.9796C89.5234 27.9854 89.5678 27.9882 89.6137 27.9882C89.8518 27.9882 90.0411 27.9463 90.1816 27.8624C90.3251 27.7785 90.4412 27.6092 90.5301 27.3546L90.6205 27.0985L88.9597 22.5803H89.76L91.0508 26.5126L90.8916 26.3389H91.1153L90.9561 26.5126L92.2512 22.5803H93.0385L91.2917 27.3763C91.1856 27.6627 91.0665 27.8971 90.9346 28.0794C90.8026 28.2617 90.6434 28.3962 90.457 28.483C90.2706 28.5698 90.0425 28.6132 89.7729 28.6132Z" fill="white"/>
<path d="M84.2616 27.0941V20.8311H87.8886V21.5342H85.0361V23.3268H86.5118C86.9019 23.3268 87.2461 23.4078 87.5444 23.5698C87.8456 23.729 88.0808 23.9503 88.2501 24.2339C88.4222 24.5146 88.5082 24.8401 88.5082 25.2105V25.2191C88.5082 25.5866 88.4236 25.9121 88.2544 26.1957C88.0851 26.4764 87.8514 26.6963 87.553 26.8554C87.2547 27.0146 86.9105 27.0941 86.5204 27.0941H84.2616ZM85.0361 26.391H86.3182C86.7628 26.391 87.107 26.2897 87.3508 26.0872C87.5946 25.8846 87.7165 25.5953 87.7165 25.2191V25.2105C87.7165 24.8314 87.5946 24.5406 87.3508 24.3381C87.107 24.1326 86.7628 24.0299 86.3182 24.0299H85.0361V26.391Z" fill="white"/>
</svg>
