<svg width="299" height="48" viewBox="0 0 299 48" fill="none" xmlns="http://www.w3.org/2000/svg">
<mask id="mask0_2066_2919" style="mask-type:luminance" maskUnits="userSpaceOnUse" x="0" y="0" width="53" height="17">
<path d="M0.377197 9.17861L26.811 -6.10352e-05L52.1598 6.93522L25.726 16.1139L0.377197 9.17861Z" fill="white"/>
</mask>
<g mask="url(#mask0_2066_2919)">
<path d="M19.7157 7.57191L26.0265 6.2216C27.2301 5.96522 28.4761 5.83702 29.773 5.8413C31.0657 5.84557 32.2058 5.98658 33.189 6.25579L37.5714 7.45654L29.5145 10.2554L19.72 7.57618M46.4165 7.16597L38.1266 4.89694C32.3541 3.32443 26.9461 3.08941 21.8984 4.19187L3.33925 8.23852C3.17396 8.27698 3.00443 8.32398 2.82219 8.38381C2.63995 8.44363 2.52128 8.53764 2.46618 8.66583C2.40684 8.79402 2.58061 8.91367 2.979 9.0205L6.00933 9.84949C6.40773 9.96059 6.92479 10.0161 7.55628 10.0204C8.18778 10.0204 8.76841 9.96486 9.28972 9.84949L14.2103 8.78121L25.1407 11.7724L21.25 13.1227C20.8262 13.268 20.6185 13.4261 20.6142 13.597C20.6142 13.7679 20.8219 13.909 21.2415 14.0243L24.132 14.8149C24.5304 14.926 25.0135 14.973 25.573 14.9559C26.1324 14.9388 26.6113 14.8619 27.014 14.7208L46.2936 8.02486C46.6751 7.8924 46.8827 7.74284 46.9209 7.57191C46.959 7.40526 46.7895 7.26852 46.4081 7.16169" fill="#180090"/>
</g>
<mask id="mask1_2066_2919" style="mask-type:luminance" maskUnits="userSpaceOnUse" x="25" y="6" width="28" height="42">
<path d="M25.3489 16.084L51.7827 6.90961L52.9524 38.8213L26.5186 48L25.3489 16.084Z" fill="white"/>
</mask>
<g mask="url(#mask1_2066_2919)">
<path d="M33.7278 36.7915L33.4862 30.181L43.1451 26.8266C44.014 26.5275 44.6878 26.5916 45.171 27.0189C45.6542 27.4462 45.9127 28.1726 45.9508 29.1982C45.989 30.2237 45.7855 31.1083 45.349 31.8604C44.9082 32.6124 44.2555 33.1337 43.3867 33.4371L33.7278 36.7915ZM33.2997 25.1302L33.0963 19.6349L42.1279 16.4985C42.8357 16.2506 43.4121 16.2976 43.8614 16.6352C44.3064 16.9728 44.5437 17.5753 44.5776 18.4385C44.6073 19.3016 44.4208 20.0494 44.0097 20.6776C43.5986 21.3057 43.0392 21.7459 42.3314 21.9894L33.2997 25.1259M41.8737 11.3109L28.1503 16.0754C27.7095 16.2293 27.3408 16.5412 27.0399 17.007C26.739 17.477 26.5949 17.9556 26.6161 18.4556L27.4934 42.3765C27.5103 42.8765 27.6841 43.2482 28.0104 43.4918C28.3368 43.7354 28.7224 43.7781 29.1632 43.6285L43.6791 38.5863C46.1882 37.7145 48.2818 36.2574 49.9559 34.2191C51.63 32.1766 52.4184 29.7665 52.3166 26.989C52.2149 24.2072 51.0579 22.5364 48.8498 21.9638C50.3162 20.0281 51.0155 18.1137 50.9477 16.225C50.8799 14.3363 50.3755 12.9347 49.4431 12.0288C47.7648 10.3794 45.243 10.1401 41.8737 11.3066" fill="#180090"/>
</g>
<mask id="mask2_2066_2919" style="mask-type:luminance" maskUnits="userSpaceOnUse" x="0" y="9" width="27" height="39">
<path d="M26.5186 48L1.16975 41.0604L0 9.14874L25.3488 16.084L26.5186 48Z" fill="white"/>
</mask>
<g mask="url(#mask2_2066_2919)">
<path d="M23.1914 16.2807L19.3813 15.238C18.3811 14.9774 17.6139 15.379 17.0757 16.4431L14.715 21.0196C14.1047 22.2032 13.4478 22.998 12.7357 23.4125C12.028 23.8227 11.1888 23.8954 10.2225 23.6305L6.67509 22.6605L6.34027 13.5074C6.32332 13.0117 6.15379 12.5374 5.84016 12.0845C5.52229 11.6315 5.15357 11.3452 4.72127 11.2298L1.61889 10.3795C1.19083 10.2641 0.830584 10.3453 0.533908 10.6316C0.241471 10.9179 0.10161 11.3068 0.118563 11.8024L0.991636 35.561C1.00859 36.0567 1.17812 36.531 1.50022 36.9797C1.82233 37.4284 2.19529 37.7104 2.62335 37.8258L5.72573 38.6761C6.15379 38.7915 6.51404 38.7231 6.80224 38.471C7.09468 38.2146 7.22606 37.8386 7.20911 37.3429L6.87005 28.0531L10.4174 29.0231C11.4092 29.2923 12.2653 29.8521 12.9943 30.7025C13.7233 31.5528 14.4565 32.7194 15.1939 34.2107L18.2921 40.3384C18.5845 40.911 18.9871 41.4408 19.4915 41.9237C20.0001 42.4108 20.4663 42.7099 20.8986 42.8296L24.6748 43.8637C25.247 44.0218 25.5225 43.8167 25.5013 43.2569C25.4928 42.9877 25.3868 42.6458 25.1876 42.2228L20.7841 33.4885C20.1653 32.2963 19.4576 31.1554 18.6608 30.0658C17.864 28.9761 17.1011 28.2454 16.3679 27.8694C17.3893 27.8566 18.2115 27.5831 18.8261 27.0489C19.4449 26.5105 19.9873 25.767 20.4663 24.8098L23.7721 18.2762C23.9416 17.9173 24.0221 17.5968 24.0137 17.302C23.9925 16.7678 23.7212 16.426 23.1914 16.2807Z" fill="#180090"/>
</g>
<path d="M291.244 19.0417C290.589 18.5853 290.262 17.9405 290.262 17.1071C290.262 16.2738 290.589 15.6339 291.244 15.1875C291.904 14.7411 292.752 14.5179 293.789 14.5179H296.252C296.252 13.9375 296.13 13.5332 295.887 13.3051C295.644 13.0769 295.217 12.9628 294.607 12.9628C294.002 12.9628 293.575 13.1141 293.327 13.4167C293.084 13.7143 292.784 13.8631 292.427 13.8631H291.319C291.185 13.8631 291.073 13.8209 290.984 13.7366C290.899 13.6473 290.857 13.5382 290.857 13.4092C290.857 11.9856 292.209 11.2738 294.912 11.2738C296.093 11.2738 297.04 11.5392 297.755 12.0699C298.469 12.5957 298.826 13.4117 298.826 14.5179V19.1235C298.826 19.2574 298.784 19.3666 298.699 19.4509C298.615 19.5352 298.506 19.5774 298.372 19.5774H296.936C296.802 19.5774 296.693 19.5352 296.609 19.4509C296.524 19.3616 296.482 19.2525 296.482 19.1235V18.8929C295.698 19.4534 294.793 19.7311 293.766 19.7262C292.745 19.7262 291.904 19.498 291.244 19.0417ZM293.967 16.2068C293.62 16.2068 293.345 16.2912 293.141 16.4598C292.943 16.6285 292.844 16.8467 292.844 17.1146C292.844 17.3824 292.948 17.6032 293.156 17.7768C293.365 17.9504 293.66 18.0372 294.042 18.0372C294.806 18.0372 295.542 17.814 296.252 17.3676V16.2068H293.967Z" fill="#180090"/>
<path d="M280.322 19.1235V11.8839C280.322 11.75 280.364 11.6409 280.448 11.5565C280.537 11.4673 280.646 11.4226 280.775 11.4226H282.442C282.571 11.4226 282.678 11.4673 282.762 11.5565C282.851 11.6409 282.896 11.75 282.896 11.8839V12.3527C283.749 11.6334 284.657 11.2738 285.619 11.2738C286.586 11.2738 287.373 11.5689 287.978 12.1592C288.583 12.7445 288.886 13.6424 288.886 14.8527V19.1235C288.886 19.2525 288.841 19.3616 288.752 19.4509C288.667 19.5352 288.558 19.5774 288.424 19.5774H286.765C286.636 19.5774 286.527 19.5352 286.438 19.4509C286.353 19.3616 286.311 19.2525 286.311 19.1235V14.8527C286.311 13.6672 285.837 13.0744 284.89 13.0744C284.27 13.0744 283.605 13.4291 282.896 14.1384V19.1235C282.896 19.2525 282.851 19.3616 282.762 19.4509C282.678 19.5352 282.571 19.5774 282.442 19.5774H280.775C280.646 19.5774 280.537 19.5352 280.448 19.4509C280.364 19.3616 280.322 19.2525 280.322 19.1235Z" fill="#180090"/>
<path d="M275.857 9.86754V9.61457C275.857 9.35167 275.932 9.14334 276.08 8.98957C276.234 8.8358 276.445 8.75891 276.713 8.75891H277.635C277.898 8.75891 278.107 8.8358 278.26 8.98957C278.414 9.13838 278.491 9.34671 278.491 9.61457V9.86754C278.491 10.1304 278.414 10.3388 278.26 10.4925C278.112 10.6463 277.903 10.7232 277.635 10.7232H276.713C276.45 10.7232 276.242 10.6463 276.088 10.4925C275.934 10.3388 275.857 10.1304 275.857 9.86754ZM275.887 19.1235V12.0625C275.887 11.9286 275.929 11.8194 276.013 11.7351C276.103 11.6508 276.212 11.6086 276.341 11.6086H278.007C278.141 11.6086 278.251 11.6533 278.335 11.7425C278.419 11.8269 278.461 11.9335 278.461 12.0625V19.1235C278.461 19.2574 278.417 19.3665 278.327 19.4509C278.243 19.5352 278.136 19.5774 278.007 19.5774H276.341C276.207 19.5774 276.098 19.5352 276.013 19.4509C275.929 19.3665 275.887 19.2574 275.887 19.1235Z" fill="#180090"/>
<path d="M265.456 19.1235V11.8839C265.456 11.75 265.498 11.6409 265.582 11.5565C265.671 11.4673 265.78 11.4226 265.909 11.4226H267.576C267.705 11.4226 267.812 11.4673 267.896 11.5565C267.985 11.6409 268.03 11.75 268.03 11.8839V12.3527C268.883 11.6334 269.791 11.2738 270.753 11.2738C271.72 11.2738 272.507 11.5689 273.112 12.1592C273.717 12.7445 274.02 13.6424 274.02 14.8527V19.1235C274.02 19.2525 273.975 19.3616 273.886 19.4509C273.801 19.5352 273.692 19.5774 273.558 19.5774H271.899C271.77 19.5774 271.661 19.5352 271.572 19.4509C271.487 19.3616 271.445 19.2525 271.445 19.1235V14.8527C271.445 13.6672 270.971 13.0744 270.024 13.0744C269.404 13.0744 268.739 13.4291 268.03 14.1384V19.1235C268.03 19.2525 267.985 19.3616 267.896 19.4509C267.812 19.5352 267.705 19.5774 267.576 19.5774H265.909C265.78 19.5774 265.671 19.5352 265.582 19.4509C265.498 19.3616 265.456 19.2525 265.456 19.1235Z" fill="#180090"/>
<path d="M260.991 9.86754V9.61457C260.991 9.35167 261.066 9.14334 261.215 8.98957C261.368 8.8358 261.579 8.75891 261.847 8.75891H262.77C263.033 8.75891 263.241 8.8358 263.395 8.98957C263.548 9.13838 263.625 9.34671 263.625 9.61457V9.86754C263.625 10.1304 263.548 10.3388 263.395 10.4925C263.246 10.6463 263.038 10.7232 262.77 10.7232H261.847C261.584 10.7232 261.376 10.6463 261.222 10.4925C261.068 10.3388 260.991 10.1304 260.991 9.86754ZM261.021 19.1235V12.0625C261.021 11.9286 261.063 11.8194 261.148 11.7351C261.237 11.6508 261.346 11.6086 261.475 11.6086H263.142C263.276 11.6086 263.385 11.6533 263.469 11.7425C263.553 11.8269 263.596 11.9335 263.596 12.0625V19.1235C263.596 19.2574 263.551 19.3665 263.462 19.4509C263.377 19.5352 263.271 19.5774 263.142 19.5774H261.475C261.341 19.5774 261.232 19.5352 261.148 19.4509C261.063 19.3665 261.021 19.2574 261.021 19.1235Z" fill="#180090"/>
<path d="M256.586 19.1235V9.36909C256.586 9.23516 256.628 9.12603 256.713 9.0417C256.802 8.95242 256.911 8.90778 257.04 8.90778H258.707C258.836 8.90778 258.942 8.95242 259.027 9.0417C259.116 9.12603 259.161 9.23516 259.161 9.36909V19.1235C259.161 19.2525 259.116 19.3616 259.027 19.4509C258.942 19.5353 258.836 19.5774 258.707 19.5774H257.04C256.911 19.5774 256.802 19.5353 256.713 19.4509C256.628 19.3616 256.586 19.2525 256.586 19.1235Z" fill="#180090"/>
<path d="M247.167 19.0417C246.512 18.5853 246.185 17.9405 246.185 17.1071C246.185 16.2738 246.512 15.6339 247.167 15.1875C247.827 14.7411 248.675 14.5179 249.712 14.5179H252.174C252.174 13.9375 252.053 13.5332 251.81 13.3051C251.567 13.0769 251.14 12.9628 250.53 12.9628C249.925 12.9628 249.498 13.1141 249.25 13.4167C249.007 13.7143 248.707 13.8631 248.35 13.8631H247.241C247.107 13.8631 246.996 13.8209 246.907 13.7366C246.822 13.6473 246.78 13.5382 246.78 13.4092C246.78 11.9856 248.132 11.2738 250.835 11.2738C252.016 11.2738 252.963 11.5392 253.677 12.0699C254.392 12.5957 254.749 13.4117 254.749 14.5179V19.1235C254.749 19.2574 254.707 19.3666 254.622 19.4509C254.538 19.5352 254.429 19.5774 254.295 19.5774H252.859C252.725 19.5774 252.616 19.5352 252.532 19.4509C252.447 19.3616 252.405 19.2525 252.405 19.1235V18.8929C251.621 19.4534 250.716 19.7311 249.689 19.7262C248.667 19.7262 247.827 19.498 247.167 19.0417ZM249.89 16.2068C249.543 16.2068 249.268 16.2912 249.064 16.4598C248.866 16.6285 248.767 16.8467 248.767 17.1146C248.767 17.3824 248.871 17.6032 249.079 17.7768C249.287 17.9504 249.583 18.0372 249.965 18.0372C250.728 18.0372 251.465 17.814 252.174 17.3676V16.2068H249.89Z" fill="#180090"/>
<path d="M245.723 19.25C245.723 19.4682 245.594 19.5773 245.336 19.5773H243.633C243.439 19.5773 243.231 19.5104 243.008 19.3765C242.784 19.2376 242.611 19.0714 242.487 18.8779L241.177 16.802C240.865 16.2961 240.55 15.9166 240.232 15.6637C239.915 15.4057 239.533 15.2768 239.086 15.2768H237.487V18.8928C237.487 19.0863 237.417 19.25 237.278 19.3839C237.144 19.5129 236.981 19.5773 236.787 19.5773H235.388C235.195 19.5773 235.029 19.5079 234.89 19.369C234.751 19.2252 234.682 19.0565 234.682 18.8631V9.61455C234.682 9.4211 234.751 9.25245 234.89 9.1086C235.029 8.96475 235.195 8.89282 235.388 8.89282H236.787C236.981 8.89282 237.144 8.96475 237.278 9.1086C237.417 9.25245 237.487 9.4211 237.487 9.61455V13.1785H239.086C239.523 13.1785 239.905 13.0595 240.232 12.8214C240.565 12.5833 240.88 12.1989 241.177 11.6681L242.33 9.61455C242.593 9.13836 242.95 8.89778 243.402 8.89282H245.121C245.359 8.89282 245.478 8.99699 245.478 9.20532C245.478 9.31941 245.436 9.45582 245.351 9.61455L243.737 12.5387C243.504 12.9652 243.241 13.3174 242.948 13.5952C242.66 13.873 242.283 14.0689 241.817 14.183C242.144 14.2524 242.479 14.4583 242.822 14.8006C243.169 15.1428 243.474 15.5148 243.737 15.9166L245.597 18.8779C245.681 19.0218 245.723 19.1458 245.723 19.25Z" fill="#180090"/>
<path d="M219.771 19.0417C219.116 18.5853 218.789 17.9405 218.789 17.1071C218.789 16.2738 219.116 15.6339 219.771 15.1875C220.43 14.7411 221.279 14.5179 222.315 14.5179H224.778C224.778 13.9375 224.657 13.5332 224.414 13.3051C224.171 13.0769 223.744 12.9628 223.134 12.9628C222.529 12.9628 222.102 13.1141 221.854 13.4167C221.611 13.7143 221.311 13.8631 220.954 13.8631H219.845C219.711 13.8631 219.6 13.8209 219.51 13.7366C219.426 13.6473 219.384 13.5382 219.384 13.4092C219.384 11.9856 220.735 11.2738 223.439 11.2738C224.619 11.2738 225.567 11.5392 226.281 12.0699C226.995 12.5957 227.353 13.4117 227.353 14.5179V19.1235C227.353 19.2574 227.31 19.3666 227.226 19.4509C227.142 19.5352 227.033 19.5774 226.899 19.5774H225.463C225.329 19.5774 225.22 19.5352 225.135 19.4509C225.051 19.3616 225.009 19.2525 225.009 19.1235V18.8929C224.225 19.4534 223.32 19.7311 222.293 19.7262C221.271 19.7262 220.43 19.498 219.771 19.0417ZM222.494 16.2068C222.147 16.2068 221.871 16.2912 221.668 16.4598C221.47 16.6285 221.37 16.8467 221.37 17.1146C221.37 17.3824 221.475 17.6032 221.683 17.7768C221.891 17.9504 222.186 18.0372 222.568 18.0372C223.332 18.0372 224.069 17.814 224.778 17.3676V16.2068H222.494Z" fill="#180090"/>
<path d="M208.848 19.1235V11.8839C208.848 11.75 208.89 11.6409 208.975 11.5565C209.064 11.4673 209.173 11.4226 209.302 11.4226H210.969C211.098 11.4226 211.204 11.4673 211.289 11.5565C211.378 11.6409 211.423 11.75 211.423 11.8839V12.3527C212.276 11.6334 213.183 11.2738 214.146 11.2738C215.113 11.2738 215.899 11.5689 216.504 12.1592C217.11 12.7445 217.412 13.6424 217.412 14.8527V19.1235C217.412 19.2525 217.367 19.3616 217.278 19.4509C217.194 19.5352 217.085 19.5774 216.951 19.5774H215.292C215.163 19.5774 215.053 19.5352 214.964 19.4509C214.88 19.3616 214.838 19.2525 214.838 19.1235V14.8527C214.838 13.6672 214.364 13.0744 213.417 13.0744C212.797 13.0744 212.132 13.4291 211.423 14.1384V19.1235C211.423 19.2525 211.378 19.3616 211.289 19.4509C211.204 19.5352 211.098 19.5774 210.969 19.5774H209.302C209.173 19.5774 209.064 19.5352 208.975 19.4509C208.89 19.3616 208.848 19.2525 208.848 19.1235Z" fill="#180090"/>
<path d="M198.447 19.1235V11.8839C198.447 11.75 198.489 11.6409 198.573 11.5565C198.663 11.4673 198.772 11.4226 198.901 11.4226H200.567C200.696 11.4226 200.803 11.4673 200.887 11.5565C200.977 11.6409 201.021 11.75 201.021 11.8839V12.3527C201.874 11.6334 202.782 11.2738 203.744 11.2738C204.712 11.2738 205.498 11.5689 206.103 12.1592C206.708 12.7445 207.011 13.6424 207.011 14.8527V19.1235C207.011 19.2525 206.966 19.3616 206.877 19.4509C206.793 19.5352 206.683 19.5774 206.549 19.5774H204.89C204.761 19.5774 204.652 19.5352 204.563 19.4509C204.479 19.3616 204.436 19.2525 204.436 19.1235V14.8527C204.436 13.6672 203.963 13.0744 203.015 13.0744C202.395 13.0744 201.731 13.4291 201.021 14.1384V19.1235C201.021 19.2525 200.977 19.3616 200.887 19.4509C200.803 19.5352 200.696 19.5774 200.567 19.5774H198.901C198.772 19.5774 198.663 19.5352 198.573 19.4509C198.489 19.3616 198.447 19.2525 198.447 19.1235Z" fill="#180090"/>
<path d="M185.009 18.8929L186.877 11.8096C187.383 9.88 189.03 8.91274 191.817 8.90778H195.828C196.011 8.90778 196.163 8.97722 196.282 9.11611C196.406 9.255 196.468 9.41621 196.468 9.59974V18.8929C196.468 19.0863 196.398 19.25 196.259 19.384C196.12 19.5129 195.954 19.5774 195.761 19.5774H194.362C194.159 19.5774 193.99 19.5129 193.856 19.384C193.727 19.25 193.663 19.0814 193.663 18.878V17.003H188.372L187.874 18.878C187.824 19.0814 187.713 19.25 187.539 19.384C187.365 19.5129 187.182 19.5774 186.988 19.5774H185.523C185.329 19.5774 185.19 19.5229 185.106 19.4137C185.022 19.2996 184.979 19.2004 184.979 19.1161C184.984 19.0318 184.994 18.9574 185.009 18.8929ZM188.923 14.8974H193.663V11.0134H191.542C191.066 11.0134 190.649 11.1498 190.292 11.4227C189.94 11.6905 189.702 12.0526 189.578 12.509L188.923 14.8974Z" fill="#180090"/>
<path d="M172.353 20.3512L173.327 20.4777C174.027 20.4777 174.515 19.9643 174.793 18.9375C173.95 18.9375 173.246 18.6845 172.68 18.1786C172.115 17.6676 171.629 16.7624 171.222 15.4628L170.113 11.869C170.098 11.8294 170.091 11.7847 170.091 11.7351C170.091 11.6805 170.121 11.6161 170.18 11.5417C170.245 11.4673 170.339 11.4276 170.463 11.4226H172.018C172.162 11.4226 172.298 11.4722 172.427 11.5714C172.561 11.6657 172.648 11.7847 172.688 11.9286L173.662 15.0833C173.905 15.8571 174.151 16.3928 174.399 16.6905C174.652 16.9881 174.949 17.1369 175.292 17.1369L176.772 11.9286C176.812 11.7847 176.889 11.6657 177.003 11.5714C177.122 11.4722 177.254 11.4226 177.397 11.4226H178.967C179.091 11.4226 179.183 11.4623 179.243 11.5417C179.302 11.621 179.332 11.688 179.332 11.7425C179.332 11.7922 179.327 11.8343 179.317 11.869L177.368 18.8184C177.02 20.0486 176.589 20.9266 176.073 21.4524C175.562 21.9782 174.902 22.2411 174.094 22.2411C173.285 22.2411 172.712 22.2113 172.375 22.1518C172.043 22.0922 171.834 22.0178 171.75 21.9286C171.666 21.8442 171.624 21.745 171.624 21.6309V20.8125C171.624 20.6786 171.666 20.567 171.75 20.4777C171.834 20.3933 171.943 20.3512 172.077 20.3512H172.353Z" fill="#180090"/>
<path d="M160.828 9.36909C160.828 9.23516 160.87 9.12603 160.954 9.0417C161.043 8.95242 161.153 8.90778 161.282 8.90778H162.948C163.077 8.90778 163.184 8.95242 163.268 9.0417C163.357 9.12603 163.402 9.23516 163.402 9.36909V11.6533C164.206 11.4003 164.922 11.2738 165.552 11.2738C166.773 11.2738 167.742 11.6384 168.462 12.3676C169.181 13.0918 169.54 14.1384 169.54 15.5075C169.54 18.32 167.966 19.7262 164.816 19.7262C164.096 19.7262 163.35 19.6469 162.576 19.4881C161.807 19.3244 161.224 19.126 160.828 18.8929V9.36909ZM163.402 13.3721V17.7619C163.829 17.876 164.372 17.9331 165.032 17.9331C165.691 17.9331 166.165 17.7421 166.453 17.3602C166.745 16.9782 166.892 16.3607 166.892 15.5075C166.892 14.6543 166.748 14.0367 166.46 13.6548C166.177 13.2679 165.696 13.0744 165.017 13.0744C164.58 13.0744 164.042 13.1736 163.402 13.3721Z" fill="#180090"/>
<path d="M145.396 21.6309V11.8839C145.396 11.75 145.438 11.6409 145.522 11.5565C145.612 11.4673 145.721 11.4226 145.85 11.4226H147.286C147.415 11.4226 147.521 11.4673 147.606 11.5565C147.695 11.6409 147.74 11.75 147.74 11.8839V12.1071C148.523 11.5516 149.434 11.2738 150.47 11.2738C151.507 11.2738 152.373 11.6409 153.067 12.375C153.762 13.1042 154.109 14.1508 154.109 15.5149C154.109 16.874 153.749 17.9157 153.03 18.6399C152.311 19.3641 151.341 19.7262 150.121 19.7262C149.491 19.7262 148.774 19.5997 147.97 19.3467V21.6309C147.97 21.7649 147.926 21.874 147.836 21.9583C147.752 22.0476 147.645 22.0923 147.517 22.0923H145.85C145.721 22.0923 145.612 22.0476 145.522 21.9583C145.438 21.874 145.396 21.7649 145.396 21.6309ZM147.97 17.628C148.61 17.8313 149.148 17.933 149.585 17.933C150.265 17.933 150.746 17.7396 151.028 17.3527C151.316 16.9658 151.46 16.3482 151.46 15.5C151.46 14.6518 151.324 14.0367 151.051 13.6548C150.783 13.2679 150.379 13.0744 149.838 13.0744C149.302 13.0744 148.68 13.2976 147.97 13.744V17.628Z" fill="#180090"/>
<path d="M134.994 16.1473V11.8839C134.994 11.75 135.037 11.6409 135.121 11.5565C135.21 11.4673 135.319 11.4226 135.448 11.4226H137.115C137.244 11.4226 137.351 11.4673 137.435 11.5565C137.524 11.6409 137.569 11.75 137.569 11.8839V16.1473C137.569 17.3378 138.04 17.933 138.982 17.933C139.603 17.933 140.27 17.5759 140.984 16.8616V11.8839C140.984 11.75 141.026 11.6409 141.11 11.5565C141.2 11.4673 141.309 11.4226 141.438 11.4226H143.097C143.231 11.4226 143.34 11.4673 143.424 11.5565C143.514 11.6409 143.558 11.75 143.558 11.8839V19.1235C143.558 19.2525 143.514 19.3616 143.424 19.4509C143.34 19.5352 143.231 19.5774 143.097 19.5774H141.438C141.309 19.5774 141.2 19.5352 141.11 19.4509C141.026 19.3616 140.984 19.2525 140.984 19.1235V18.6473C140.131 19.3666 139.221 19.7262 138.253 19.7262C137.291 19.7262 136.507 19.4335 135.902 18.8482C135.297 18.2579 134.994 17.3576 134.994 16.1473Z" fill="#180090"/>
<path d="M125.783 18.6548C125.009 17.9405 124.622 16.8889 124.622 15.5C124.622 14.1061 125.009 13.0546 125.783 12.3452C126.557 11.6309 127.668 11.2738 129.116 11.2738C130.569 11.2738 131.683 11.6309 132.457 12.3452C133.231 13.0546 133.618 14.1061 133.618 15.5C133.618 16.8889 133.231 17.9405 132.457 18.6548C131.683 19.369 130.569 19.7262 129.116 19.7262C127.668 19.7262 126.557 19.369 125.783 18.6548ZM127.665 13.5655C127.358 13.9673 127.204 14.6096 127.204 15.4926C127.204 16.3755 127.358 17.0203 127.665 17.4271C127.973 17.8338 128.456 18.0372 129.116 18.0372C129.781 18.0372 130.267 17.8338 130.574 17.4271C130.887 17.0203 131.043 16.3755 131.043 15.4926C131.043 14.6096 130.887 13.9673 130.574 13.5655C130.267 13.1637 129.781 12.9628 129.116 12.9628C128.456 12.9628 127.973 13.1637 127.665 13.5655Z" fill="#180090"/>
<path d="M123.313 13.3125L122.167 13.2679C121.497 13.2679 120.857 13.6349 120.247 14.369V19.1235C120.247 19.2574 120.203 19.3666 120.113 19.4509C120.029 19.5352 119.922 19.5774 119.793 19.5774H118.127C117.993 19.5774 117.884 19.5352 117.799 19.4509C117.715 19.3666 117.673 19.2574 117.673 19.1235V11.8839C117.673 11.75 117.715 11.6409 117.799 11.5565C117.889 11.4673 117.998 11.4226 118.127 11.4226H119.793C119.927 11.4226 120.036 11.4673 120.121 11.5565C120.205 11.6409 120.247 11.75 120.247 11.8839V12.3527C120.753 11.9856 121.239 11.7153 121.706 11.5417C122.177 11.3631 122.792 11.2738 123.551 11.2738C123.685 11.2738 123.794 11.3184 123.878 11.4077C123.967 11.4921 124.012 11.5987 124.012 11.7277V12.8586C124.012 12.9926 123.967 13.1017 123.878 13.186C123.794 13.2703 123.685 13.3125 123.551 13.3125H123.313Z" fill="#180090"/>
<path d="M111.036 18.9524C109.91 18.9524 109 18.6126 108.305 17.933C107.616 17.2535 107.271 16.311 107.271 15.1056C107.271 13.9003 107.666 12.9603 108.454 12.2857C109.243 11.6111 110.374 11.2738 111.847 11.2738C112.566 11.2738 113.313 11.3556 114.087 11.5193C114.861 11.6781 115.443 11.874 115.835 12.1071V18.997C115.835 20.1032 115.471 20.9191 114.741 21.4449C114.012 21.9757 112.988 22.2411 111.669 22.2411C110.354 22.2411 109.34 22.0749 108.625 21.7426C107.916 21.4152 107.561 20.872 107.561 20.1131C107.561 19.9792 107.604 19.8676 107.688 19.7783C107.777 19.6939 107.889 19.6518 108.023 19.6518H109.131C109.489 19.6518 109.774 19.7832 109.987 20.0461C110.26 20.3834 110.743 20.5521 111.438 20.5521C112.137 20.5521 112.616 20.438 112.874 20.2098C113.132 19.9816 113.261 19.5774 113.261 18.997V18.6473C112.467 18.8507 111.726 18.9524 111.036 18.9524ZM111.691 13.0744C110.515 13.0694 109.927 13.749 109.927 15.1131C109.927 16.4722 110.5 17.1518 111.646 17.1518C112.122 17.1518 112.661 17.0774 113.261 16.9286V13.2381C112.834 13.124 112.311 13.0694 111.691 13.0744Z" fill="#180090"/>
<path d="M89.9646 9.61462C89.9646 9.42117 90.034 9.255 90.1729 9.11611C90.3118 8.97722 90.478 8.90778 90.6714 8.90778H96.7205C98.2037 8.90778 99.2974 9.33436 100.002 10.1875C100.394 10.6588 100.59 11.2614 100.59 11.9956C100.59 12.7247 100.255 13.3621 99.5851 13.9078C100.538 14.4187 101.014 15.2123 101.014 16.2887C101.014 17.3651 100.632 18.1836 99.8679 18.7441C99.1089 19.2996 98.1764 19.5774 97.0702 19.5774H90.6714C90.478 19.5774 90.3118 19.5105 90.1729 19.3765C90.034 19.2376 89.9646 19.0715 89.9646 18.878V9.61462ZM92.7697 17.5685H97.0256C97.4076 17.5685 97.7002 17.4544 97.9036 17.2262C98.107 16.9981 98.2086 16.6856 98.2086 16.2887C98.2086 15.8919 98.107 15.5794 97.9036 15.3512C97.7002 15.1231 97.4076 15.009 97.0256 15.009H92.7697V17.5685ZM92.7697 13.0521H96.7503C97.0628 13.0521 97.3133 12.9604 97.5018 12.7768C97.6903 12.5883 97.7845 12.3279 97.7845 11.9956C97.7845 11.6583 97.6903 11.3954 97.5018 11.2069C97.3133 11.0184 97.0628 10.9241 96.7503 10.9241H92.7697V13.0521Z" fill="#180090"/>
<path d="M76.3782 18.8929L78.2457 11.8096C78.7517 9.88 80.3985 8.91274 83.1862 8.90778H87.1966C87.3801 8.90778 87.5314 8.97722 87.6505 9.11611C87.7745 9.255 87.8365 9.41621 87.8365 9.59974V18.8929C87.8365 19.0863 87.767 19.25 87.6281 19.384C87.4893 19.5129 87.3231 19.5774 87.1296 19.5774H85.7308C85.5274 19.5774 85.3588 19.5129 85.2249 19.384C85.0959 19.25 85.0314 19.0814 85.0314 18.878V17.003H79.7412L79.2427 18.878C79.1931 19.0814 79.0815 19.25 78.9079 19.384C78.7343 19.5129 78.5508 19.5774 78.3573 19.5774H76.8915C76.6981 19.5774 76.5592 19.5229 76.4749 19.4137C76.3906 19.2996 76.3484 19.2004 76.3484 19.1161C76.3533 19.0318 76.3633 18.9574 76.3782 18.8929ZM80.2918 14.8974H85.0314V11.0134H82.9109C82.4347 11.0134 82.018 11.1498 81.6609 11.4227C81.3087 11.6905 81.0706 12.0526 80.9466 12.509L80.2918 14.8974Z" fill="#180090"/>
<path d="M76.1847 19.25C76.1847 19.4682 76.0558 19.5773 75.7978 19.5773H74.094C73.9005 19.5773 73.6922 19.5104 73.469 19.3765C73.2457 19.2376 73.0721 19.0714 72.9481 18.8779L71.6386 16.802C71.3261 16.2961 71.0111 15.9166 70.6937 15.6637C70.3762 15.4057 69.9943 15.2768 69.5478 15.2768H67.9481V18.8928C67.9481 19.0863 67.8787 19.25 67.7398 19.3839C67.6059 19.5129 67.4422 19.5773 67.2487 19.5773H65.8499C65.6565 19.5773 65.4903 19.5079 65.3514 19.369C65.2125 19.2252 65.1431 19.0565 65.1431 18.8631V9.61455C65.1431 9.4211 65.2125 9.25245 65.3514 9.1086C65.4903 8.96475 65.6565 8.89282 65.8499 8.89282H67.2487C67.4422 8.89282 67.6059 8.96475 67.7398 9.1086C67.8787 9.25245 67.9481 9.4211 67.9481 9.61455V13.1785H69.5478C69.9843 13.1785 70.3663 13.0595 70.6937 12.8214C71.026 12.5833 71.341 12.1989 71.6386 11.6681L72.7919 9.61455C73.0548 9.13836 73.4119 8.89778 73.8633 8.89282H75.582C75.8201 8.89282 75.9392 8.99699 75.9392 9.20532C75.9392 9.31941 75.897 9.45582 75.8127 9.61455L74.1981 12.5387C73.965 12.9652 73.7021 13.3174 73.4094 13.5952C73.1217 13.873 72.7447 14.0689 72.2785 14.183C72.6059 14.2524 72.9407 14.4583 73.2829 14.8006C73.6302 15.1428 73.9352 15.5148 74.1981 15.9166L76.0582 18.8779C76.1426 19.0218 76.1847 19.1458 76.1847 19.25Z" fill="#180090"/>
<path d="M247.578 30.9672V31.8244H245.583V37.1577H244.548V31.8244H242.554V30.9672H247.578Z" fill="#747480"/>
<path d="M236.405 37.1577V30.9672H237.44V35.5684H237.94L237.232 35.9494L240.571 30.9672H241.595V37.1577H240.56V32.5565H240.06L240.768 32.1756L237.429 37.1577H236.405Z" fill="#747480"/>
<path d="M229.709 38.8541H228.744V36.3006H229.262C229.488 36.1498 229.659 35.8998 229.774 35.5506C229.893 35.2014 229.967 34.8184 229.994 34.4017L230.232 30.9672H234.494V36.3006H235.477V38.8541H234.512V37.1577H229.709V38.8541ZM233.459 36.3006V31.8244H231.143L230.953 34.4256C230.925 34.8144 230.869 35.1716 230.786 35.497C230.703 35.8184 230.584 36.0783 230.429 36.2767V36.3006H233.459Z" fill="#747480"/>
<path d="M224.149 39.241C224.05 39.241 223.949 39.2351 223.845 39.2232C223.746 39.2152 223.663 39.2053 223.595 39.1934V38.3482C223.639 38.3561 223.689 38.364 223.744 38.372C223.804 38.3799 223.865 38.3839 223.929 38.3839C224.258 38.3839 224.52 38.3264 224.714 38.2113C224.913 38.0962 225.074 37.864 225.197 37.5148L225.322 37.1637L223.024 30.9672H224.131L225.917 36.3601L225.697 36.122H226.006L225.786 36.3601L227.577 30.9672H228.667L226.25 37.5446C226.103 37.9375 225.939 38.2589 225.756 38.5089C225.574 38.7589 225.353 38.9434 225.095 39.0625C224.837 39.1815 224.522 39.241 224.149 39.241Z" fill="#747480"/>
<path d="M215.637 37.1577L218.833 28.5684H219.625V29.8541H219.351L216.762 37.1577H215.637ZM217.101 34.6994L217.458 33.7887H221.268L221.625 34.6994H217.101ZM221.958 37.1577L219.375 29.8541V28.5684H219.893L223.083 37.1577H221.958Z" fill="#747480"/>
<path d="M212.935 28.5684L210.512 39.241H209.524L211.947 28.5684H212.935Z" fill="#747480"/>
<path d="M201.107 37.1577V30.9672H202.143V35.5684H202.643L201.935 35.9494L205.274 30.9672H206.298V37.1577H205.262V32.5565H204.762L205.471 32.1756L202.131 37.1577H201.107Z" fill="#747480"/>
<path d="M199.983 31.8244H197.036V37.1577H196V30.9672H199.983V31.8244Z" fill="#747480"/>
<path d="M191.976 37.2768C191.405 37.2768 190.903 37.1458 190.471 36.8839C190.042 36.622 189.707 36.251 189.465 35.7708C189.226 35.2867 189.107 34.7173 189.107 34.0625V34.0506C189.107 33.3919 189.226 32.8244 189.465 32.3482C189.707 31.868 190.042 31.499 190.471 31.2411C190.903 30.9792 191.403 30.8482 191.971 30.8482C192.542 30.8482 193.042 30.9792 193.471 31.2411C193.903 31.499 194.238 31.868 194.476 32.3482C194.719 32.8244 194.84 33.3919 194.84 34.0506V34.0625C194.84 34.7212 194.719 35.2907 194.476 35.7708C194.238 36.251 193.905 36.622 193.476 36.8839C193.048 37.1458 192.548 37.2768 191.976 37.2768ZM191.982 36.3601C192.347 36.3601 192.663 36.2708 192.929 36.0923C193.199 35.9097 193.407 35.6478 193.554 35.3065C193.705 34.9613 193.78 34.5466 193.78 34.0625V34.0506C193.78 33.5665 193.705 33.1538 193.554 32.8125C193.407 32.4712 193.197 32.2113 192.923 32.0327C192.653 31.8542 192.336 31.7649 191.971 31.7649C191.613 31.7649 191.298 31.8561 191.024 32.0387C190.754 32.2173 190.544 32.4772 190.393 32.8184C190.242 33.1557 190.167 33.5665 190.167 34.0506V34.0625C190.167 34.5466 190.242 34.9613 190.393 35.3065C190.544 35.6478 190.754 35.9097 191.024 36.0923C191.298 36.2708 191.617 36.3601 191.982 36.3601Z" fill="#747480"/>
<path d="M184.328 34.4315C184.284 34.999 184.201 35.493 184.078 35.9137C183.959 36.3303 183.772 36.6517 183.518 36.8779C183.268 37.1041 182.923 37.2172 182.483 37.2172C182.383 37.2172 182.296 37.2113 182.221 37.1994C182.149 37.1875 182.092 37.1736 182.048 37.1577V36.2232C182.076 36.2311 182.118 36.241 182.173 36.2529C182.229 36.2609 182.296 36.2648 182.375 36.2648C182.598 36.2648 182.774 36.1894 182.905 36.0387C183.036 35.8879 183.135 35.6736 183.203 35.3958C183.27 35.114 183.318 34.7847 183.346 34.4077L183.59 30.9672H187.941V37.1577H186.905V31.8244H184.524L184.328 34.4315Z" fill="#747480"/>
<path d="M178.185 37.2768C177.776 37.2768 177.417 37.1994 177.108 37.0446C176.798 36.8899 176.556 36.6716 176.381 36.3899C176.211 36.1081 176.125 35.7807 176.125 35.4077V35.3958C176.125 35.0426 176.213 34.7371 176.387 34.4792C176.566 34.2212 176.822 34.0169 177.155 33.8661C177.493 33.7153 177.897 33.626 178.37 33.5982L180.661 33.4673V34.2708L178.489 34.4018C178.076 34.4256 177.754 34.5248 177.524 34.6994C177.298 34.874 177.185 35.1061 177.185 35.3958V35.4077C177.185 35.7053 177.296 35.9415 177.518 36.1161C177.745 36.2907 178.044 36.378 178.417 36.378C178.743 36.378 179.034 36.3105 179.292 36.1756C179.554 36.0367 179.76 35.8482 179.911 35.6101C180.066 35.372 180.143 35.1042 180.143 34.8065V32.9792C180.143 32.6022 180.024 32.3065 179.786 32.0923C179.552 31.874 179.219 31.7649 178.786 31.7649C178.389 31.7649 178.068 31.8522 177.822 32.0268C177.58 32.1974 177.429 32.4216 177.37 32.6994L177.358 32.753H176.358L176.364 32.6875C176.395 32.3462 176.51 32.0367 176.709 31.7589C176.911 31.4811 177.189 31.2609 177.542 31.0982C177.895 30.9315 178.314 30.8482 178.798 30.8482C179.286 30.8482 179.707 30.9315 180.06 31.0982C180.417 31.2649 180.693 31.501 180.887 31.8065C181.082 32.1081 181.179 32.4653 181.179 32.878V37.1577H180.143V36.1518H180.12C180 36.378 179.842 36.5764 179.643 36.747C179.445 36.9137 179.221 37.0446 178.971 37.1399C178.725 37.2311 178.463 37.2768 178.185 37.2768Z" fill="#747480"/>
<path d="M167.893 37.1577V28.5684H168.964V32.2827H173.679V28.5684H174.75V37.1577H173.679V33.247H168.964V37.1577H167.893Z" fill="#747480"/>
<path d="M164.506 28.5684L162.084 39.241H161.095L163.518 28.5684H164.506Z" fill="#747480"/>
<path d="M158.363 30.9672V31.8244H156.369V37.1577H155.334V31.8244H153.34V30.9672H158.363Z" fill="#747480"/>
<path d="M150.256 37.2768C149.665 37.2768 149.155 37.1458 148.726 36.8839C148.302 36.622 147.974 36.253 147.744 35.7768C147.518 35.2966 147.405 34.7331 147.405 34.0863V34.0803C147.405 33.4415 147.52 32.88 147.75 32.3958C147.98 31.9077 148.304 31.5288 148.721 31.2589C149.137 30.9851 149.627 30.8482 150.191 30.8482C150.754 30.8482 151.238 30.9792 151.643 31.2411C152.052 31.499 152.365 31.8621 152.584 32.3303C152.802 32.7986 152.911 33.3423 152.911 33.9613V34.3423H147.923V33.5327H152.399L151.875 34.2827V33.8839C151.875 33.4038 151.802 33.0069 151.655 32.6934C151.512 32.38 151.314 32.1478 151.06 31.997C150.806 31.8423 150.514 31.7649 150.185 31.7649C149.855 31.7649 149.56 31.8462 149.298 32.0089C149.036 32.1676 148.83 32.4057 148.679 32.7232C148.528 33.0367 148.453 33.4236 148.453 33.8839V34.2827C148.453 34.7192 148.526 35.0923 148.673 35.4018C148.824 35.7113 149.036 35.9494 149.31 36.1161C149.584 36.2788 149.907 36.3601 150.28 36.3601C150.542 36.3601 150.776 36.3204 150.982 36.2411C151.189 36.1617 151.361 36.0526 151.5 35.9137C151.639 35.7748 151.738 35.6161 151.798 35.4375L151.816 35.3839H152.834L152.822 35.4434C152.77 35.6974 152.671 35.9355 152.524 36.1577C152.381 36.38 152.197 36.5764 151.971 36.747C151.744 36.9137 151.486 37.0446 151.197 37.1399C150.907 37.2311 150.594 37.2768 150.256 37.2768Z" fill="#747480"/>
<path d="M146.244 37.1577H145.209V34.4494H145.185C144.99 34.62 144.754 34.749 144.477 34.8363C144.203 34.9236 143.919 34.9672 143.625 34.9672C142.883 34.9672 142.322 34.7728 141.941 34.3839C141.56 33.991 141.369 33.4652 141.369 32.8065V30.9672H142.405V32.7351C142.405 33.1756 142.522 33.5049 142.756 33.7232C142.994 33.9414 143.35 34.0506 143.822 34.0506C144.004 34.0506 144.183 34.0307 144.357 33.991C144.536 33.9514 144.699 33.8958 144.846 33.8244C144.992 33.7529 145.113 33.6696 145.209 33.5744V30.9672H146.244V37.1577Z" fill="#747480"/>
<path d="M136.078 39.241C135.979 39.241 135.877 39.2351 135.774 39.2232C135.675 39.2152 135.592 39.2053 135.524 39.1934V38.3482C135.568 38.3561 135.618 38.364 135.673 38.372C135.733 38.3799 135.794 38.3839 135.858 38.3839C136.187 38.3839 136.449 38.3264 136.643 38.2113C136.842 38.0962 137.002 37.864 137.125 37.5148L137.25 37.1637L134.953 30.9672H136.06L137.846 36.3601L137.625 36.122H137.935L137.715 36.3601L139.506 30.9672H140.596L138.179 37.5446C138.032 37.9375 137.868 38.2589 137.685 38.5089C137.502 38.7589 137.282 38.9434 137.024 39.0625C136.766 39.1815 136.451 39.241 136.078 39.241Z" fill="#747480"/>
<path d="M129.167 37.1577L131.274 34.0625L129.202 30.9672H130.357L131.845 33.2887H131.869L133.339 30.9672H134.494L132.405 34.0208L134.464 37.1577H133.316L131.833 34.8006H131.81L130.316 37.1577H129.167Z" fill="#747480"/>
<path d="M124.197 39.241C124.098 39.241 123.996 39.2351 123.893 39.2232C123.794 39.2152 123.711 39.2053 123.643 39.1934V38.3482C123.687 38.3561 123.736 38.364 123.792 38.372C123.852 38.3799 123.913 38.3839 123.977 38.3839C124.306 38.3839 124.568 38.3264 124.762 38.2113C124.961 38.0962 125.121 37.864 125.244 37.5148L125.369 37.1637L123.072 30.9672H124.179L125.965 36.3601L125.744 36.122H126.054L125.834 36.3601L127.625 30.9672H128.715L126.298 37.5446C126.151 37.9375 125.986 38.2589 125.804 38.5089C125.621 38.7589 125.401 38.9434 125.143 39.0625C124.885 39.1815 124.57 39.241 124.197 39.241Z" fill="#747480"/>
<path d="M116.572 37.1577V28.5684H121.59V29.5327H117.643V31.991H119.685C120.225 31.991 120.701 32.1022 121.114 32.3244C121.53 32.5426 121.856 32.8462 122.09 33.2351C122.328 33.62 122.447 34.0664 122.447 34.5744V34.5863C122.447 35.0902 122.33 35.5367 122.096 35.9256C121.862 36.3105 121.538 36.6121 121.126 36.8303C120.713 37.0486 120.237 37.1577 119.697 37.1577H116.572ZM117.643 36.1934H119.417C120.032 36.1934 120.509 36.0545 120.846 35.7768C121.183 35.499 121.352 35.1021 121.352 34.5863V34.5744C121.352 34.0545 121.183 33.6557 120.846 33.3779C120.509 33.0962 120.032 32.9553 119.417 32.9553H117.643V36.1934Z" fill="#747480"/>
</svg>
