<svg width="156" height="36" viewBox="0 0 156 36" fill="none" xmlns="http://www.w3.org/2000/svg">
<mask id="mask0_2113_3933" style="mask-type:luminance" maskUnits="userSpaceOnUse" x="0" y="0" width="40" height="13">
<path d="M0.284668 6.88397L20.2258 -3.05176e-05L39.3485 5.20143L19.4073 12.0854L0.284668 6.88397Z" fill="white"/>
</mask>
<g mask="url(#mask0_2113_3933)">
<path d="M14.8734 5.67898L19.6341 4.66625C20.5421 4.47396 21.4821 4.37781 22.4604 4.38102C23.4356 4.38422 24.2956 4.48998 25.0374 4.69189L28.3433 5.59245L22.2654 7.69162L14.8766 5.68218M35.016 5.37452L28.7622 3.67275C24.4075 2.49337 20.3278 2.3171 16.5199 3.14395L2.51924 6.17893C2.39455 6.20778 2.26666 6.24303 2.12918 6.2879C1.9917 6.33277 1.90217 6.40327 1.86061 6.49942C1.81585 6.59556 1.94693 6.6853 2.24748 6.76542L4.5335 7.38716C4.83404 7.47049 5.2241 7.51215 5.70049 7.51535C6.17688 7.51535 6.6149 7.47369 7.00816 7.38716L10.7202 6.58595L18.9658 8.82934L16.0308 9.84207C15.711 9.95103 15.5544 10.0696 15.5512 10.1978C15.5512 10.326 15.7078 10.4318 16.0244 10.5183L18.2049 11.1112C18.5054 11.1945 18.8699 11.2298 19.2919 11.2169C19.714 11.2041 20.0753 11.1464 20.379 11.0407L34.9232 6.01869C35.211 5.91934 35.3677 5.80717 35.3964 5.67898C35.4252 5.55399 35.2973 5.45144 35.0096 5.37131" fill="white"/>
</g>
<mask id="mask1_2113_3933" style="mask-type:luminance" maskUnits="userSpaceOnUse" x="19" y="5" width="21" height="31">
<path d="M19.1228 12.063L39.064 5.18219L39.9464 29.116L20.0052 36L19.1228 12.063Z" fill="white"/>
</mask>
<g mask="url(#mask1_2113_3933)">
<path d="M25.4437 27.5937L25.2614 22.6358L32.5479 20.12C33.2033 19.8957 33.7117 19.9437 34.0762 20.2642C34.4407 20.5847 34.6357 21.1295 34.6645 21.8987C34.6933 22.6678 34.5398 23.3312 34.2105 23.8953C33.878 24.4594 33.3856 24.8503 32.7302 25.0779L25.4437 27.5937ZM25.1207 18.8477L24.9673 14.7262L31.7806 12.3739C32.3145 12.188 32.7493 12.2233 33.0882 12.4764C33.424 12.7296 33.603 13.1815 33.6286 13.8289C33.651 14.4763 33.5103 15.0371 33.2001 15.5082C32.89 15.9793 32.468 16.3094 31.934 16.4921L25.1207 18.8445M31.5887 8.48321L21.2361 12.0566C20.9036 12.172 20.6254 12.4059 20.3984 12.7553C20.1714 13.1078 20.0627 13.4667 20.0787 13.8417L20.7405 31.7824C20.7533 32.1574 20.8844 32.4362 21.1306 32.6189C21.3768 32.8016 21.6677 32.8336 22.0002 32.7214L32.9508 28.9397C34.8435 28.2859 36.423 27.1931 37.6859 25.6644C38.9488 24.1325 39.5435 22.3249 39.4667 20.2418C39.39 18.1554 38.5172 16.9023 36.8514 16.4729C37.9576 15.0211 38.4852 13.5853 38.434 12.1688C38.3829 10.7522 38.0024 9.70105 37.299 9.02162C36.0329 7.78455 34.1305 7.60508 31.5887 8.48" fill="white"/>
</g>
<mask id="mask2_2113_3933" style="mask-type:luminance" maskUnits="userSpaceOnUse" x="0" y="6" width="21" height="30">
<path d="M20.0051 36L0.882438 30.7953L0 6.86157L19.1227 12.063L20.0051 36Z" fill="white"/>
</mask>
<g mask="url(#mask2_2113_3933)">
<path d="M17.4952 12.2105L14.6209 11.4285C13.8663 11.233 13.2876 11.5343 12.8816 12.3323L11.1007 15.7647C10.6403 16.6524 10.1447 17.2485 9.60759 17.5594C9.07365 17.867 8.4406 17.9215 7.71163 17.7228L5.03554 16.9953L4.78296 10.1305C4.77017 9.75879 4.64228 9.40305 4.40569 9.06334C4.16589 8.72362 3.88773 8.5089 3.56162 8.42237L1.22124 7.78461C0.898317 7.69807 0.626552 7.75897 0.402746 7.97369C0.182136 8.18842 0.0766274 8.48006 0.0894164 8.85182L0.748047 26.6707C0.760836 27.0425 0.888726 27.3982 1.13172 27.7348C1.37471 28.0713 1.65606 28.2828 1.97898 28.3693L4.31936 29.0071C4.64228 29.0936 4.91405 29.0423 5.13146 28.8532C5.35207 28.6609 5.45118 28.3789 5.43839 28.0072L5.18261 21.0398L7.8587 21.7673C8.60686 21.9692 9.2527 22.3891 9.80262 23.0268C10.3525 23.6646 10.9057 24.5395 11.462 25.658L13.7992 30.2538C14.0198 30.6832 14.3235 31.0806 14.704 31.4428C15.0877 31.8081 15.4394 32.0324 15.7655 32.1222L18.6142 32.8977C19.0458 33.0163 19.2537 32.8625 19.2377 32.4427C19.2313 32.2408 19.1513 31.9844 19.0011 31.6671L15.6791 25.1164C15.2123 24.2222 14.6784 23.3665 14.0773 22.5493C13.4762 21.7321 12.9007 21.1841 12.3476 20.902C13.1182 20.8924 13.7384 20.6873 14.202 20.2867C14.6688 19.8829 15.0781 19.3252 15.4394 18.6074L17.9332 13.7072C18.0611 13.4379 18.1218 13.1976 18.1154 12.9765C18.0995 12.5758 17.8948 12.3195 17.4952 12.2105Z" fill="white"/>
</g>
<path d="M150.17 27.5692C149.67 27.2225 149.419 26.7326 149.419 26.0995C149.419 25.4663 149.67 24.9802 150.17 24.641C150.674 24.3018 151.322 24.1323 152.115 24.1323H153.997C153.997 23.6913 153.904 23.3842 153.718 23.2108C153.532 23.0375 153.206 22.9508 152.74 22.9508C152.278 22.9508 151.952 23.0658 151.762 23.2956C151.576 23.5218 151.347 23.6348 151.074 23.6348H150.227C150.124 23.6348 150.039 23.6028 149.971 23.5387C149.907 23.4709 149.874 23.388 149.874 23.29C149.874 22.2084 150.907 21.6676 152.973 21.6676C153.875 21.6676 154.599 21.8692 155.145 22.2725C155.691 22.6719 155.964 23.2919 155.964 24.1323V27.6314C155.964 27.7332 155.932 27.8161 155.867 27.8801C155.803 27.9442 155.719 27.9762 155.617 27.9762H154.52C154.417 27.9762 154.334 27.9442 154.27 27.8801C154.205 27.8123 154.173 27.7294 154.173 27.6314V27.4562C153.574 27.882 152.882 28.0931 152.097 28.0893C151.317 28.0893 150.674 27.9159 150.17 27.5692ZM152.251 25.4155C151.986 25.4155 151.775 25.4795 151.62 25.6077C151.468 25.7358 151.392 25.9016 151.392 26.1051C151.392 26.3086 151.472 26.4763 151.631 26.6082C151.79 26.7401 152.016 26.8061 152.308 26.8061C152.892 26.8061 153.455 26.6365 153.997 26.2973V25.4155H152.251Z" fill="white"/>
<path d="M141.823 27.6314V22.1311C141.823 22.0294 141.855 21.9465 141.92 21.8824C141.988 21.8146 142.072 21.7807 142.17 21.7807H143.444C143.542 21.7807 143.624 21.8146 143.688 21.8824C143.756 21.9465 143.791 22.0294 143.791 22.1311V22.4873C144.443 21.9408 145.136 21.6676 145.872 21.6676C146.611 21.6676 147.212 21.8918 147.674 22.3403C148.137 22.785 148.368 23.4671 148.368 24.3866V27.6314C148.368 27.7294 148.334 27.8123 148.265 27.8801C148.201 27.9442 148.118 27.9762 148.015 27.9762H146.747C146.649 27.9762 146.565 27.9442 146.497 27.8801C146.433 27.8123 146.4 27.7294 146.4 27.6314V24.3866C146.4 23.4859 146.038 23.0356 145.314 23.0356C144.841 23.0356 144.333 23.3051 143.791 23.844V27.6314C143.791 27.7294 143.756 27.8123 143.688 27.8801C143.624 27.9442 143.542 27.9762 143.444 27.9762H142.17C142.072 27.9762 141.988 27.9442 141.92 27.8801C141.855 27.8123 141.823 27.7294 141.823 27.6314Z" fill="white"/>
<path d="M138.412 20.5991V20.4069C138.412 20.2072 138.468 20.0489 138.582 19.9321C138.7 19.8153 138.861 19.7569 139.065 19.7569H139.771C139.971 19.7569 140.131 19.8153 140.248 19.9321C140.366 20.0452 140.424 20.2034 140.424 20.4069V20.5991C140.424 20.7989 140.366 20.9572 140.248 21.074C140.134 21.1908 139.975 21.2492 139.771 21.2492H139.065C138.865 21.2492 138.705 21.1908 138.588 21.074C138.47 20.9572 138.412 20.7989 138.412 20.5991ZM138.434 27.6313V22.2668C138.434 22.165 138.467 22.0821 138.531 22.018C138.599 21.954 138.683 21.9219 138.781 21.9219H140.055C140.157 21.9219 140.241 21.9558 140.305 22.0237C140.369 22.0877 140.402 22.1688 140.402 22.2668V27.6313C140.402 27.7331 140.368 27.816 140.299 27.8801C140.235 27.9441 140.153 27.9762 140.055 27.9762H138.781C138.679 27.9762 138.595 27.9441 138.531 27.8801C138.467 27.816 138.434 27.7331 138.434 27.6313Z" fill="white"/>
<path d="M130.463 27.6314V22.1311C130.463 22.0294 130.495 21.9465 130.56 21.8824C130.628 21.8146 130.711 21.7807 130.81 21.7807H132.083C132.182 21.7807 132.263 21.8146 132.328 21.8824C132.396 21.9465 132.43 22.0294 132.43 22.1311V22.4873C133.082 21.9408 133.776 21.6676 134.511 21.6676C135.25 21.6676 135.851 21.8918 136.314 22.3403C136.776 22.785 137.007 23.4671 137.007 24.3866V27.6314C137.007 27.7294 136.973 27.8123 136.905 27.8801C136.841 27.9442 136.757 27.9762 136.655 27.9762H135.387C135.288 27.9762 135.205 27.9442 135.137 27.8801C135.072 27.8123 135.04 27.7294 135.04 27.6314V24.3866C135.04 23.4859 134.678 23.0356 133.954 23.0356C133.48 23.0356 132.972 23.3051 132.43 23.844V27.6314C132.43 27.7294 132.396 27.8123 132.328 27.8801C132.263 27.9442 132.182 27.9762 132.083 27.9762H130.81C130.711 27.9762 130.628 27.9442 130.56 27.8801C130.495 27.8123 130.463 27.7294 130.463 27.6314Z" fill="white"/>
<path d="M127.051 20.5991V20.4069C127.051 20.2072 127.108 20.0489 127.222 19.9321C127.339 19.8153 127.5 19.7569 127.705 19.7569H128.41C128.611 19.7569 128.77 19.8153 128.888 19.9321C129.005 20.0452 129.064 20.2034 129.064 20.4069V20.5991C129.064 20.7989 129.005 20.9572 128.888 21.074C128.774 21.1908 128.615 21.2492 128.41 21.2492H127.705C127.504 21.2492 127.345 21.1908 127.228 21.074C127.11 20.9572 127.051 20.7989 127.051 20.5991ZM127.074 27.6313V22.2668C127.074 22.165 127.106 22.0821 127.171 22.018C127.239 21.954 127.322 21.9219 127.421 21.9219H128.695C128.797 21.9219 128.88 21.9558 128.945 22.0237C129.009 22.0877 129.041 22.1688 129.041 22.2668V27.6313C129.041 27.7331 129.007 27.816 128.939 27.8801C128.875 27.9441 128.793 27.9762 128.695 27.9762H127.421C127.319 27.9762 127.235 27.9441 127.171 27.8801C127.106 27.816 127.074 27.7331 127.074 27.6313Z" fill="white"/>
<path d="M123.685 27.6314V20.2204C123.685 20.1187 123.717 20.0358 123.782 19.9717C123.85 19.9039 123.933 19.87 124.032 19.87H125.306C125.404 19.87 125.486 19.9039 125.55 19.9717C125.618 20.0358 125.652 20.1187 125.652 20.2204V27.6314C125.652 27.7294 125.618 27.8123 125.55 27.8801C125.486 27.9442 125.404 27.9762 125.306 27.9762H124.032C123.933 27.9762 123.85 27.9442 123.782 27.8801C123.717 27.8123 123.685 27.7294 123.685 27.6314Z" fill="white"/>
<path d="M116.487 27.5692C115.987 27.2225 115.736 26.7326 115.736 26.0995C115.736 25.4663 115.987 24.9802 116.487 24.641C116.991 24.3018 117.639 24.1323 118.431 24.1323H120.313C120.313 23.6913 120.221 23.3842 120.035 23.2108C119.849 23.0375 119.523 22.9508 119.057 22.9508C118.594 22.9508 118.268 23.0658 118.079 23.2956C117.893 23.5218 117.664 23.6348 117.391 23.6348H116.544C116.441 23.6348 116.356 23.6028 116.288 23.5387C116.223 23.4709 116.191 23.388 116.191 23.29C116.191 22.2084 117.224 21.6676 119.29 21.6676C120.192 21.6676 120.916 21.8692 121.462 22.2725C122.008 22.6719 122.281 23.2919 122.281 24.1323V27.6314C122.281 27.7332 122.249 27.8161 122.184 27.8801C122.12 27.9442 122.036 27.9762 121.934 27.9762H120.837C120.734 27.9762 120.651 27.9442 120.586 27.8801C120.522 27.8123 120.49 27.7294 120.49 27.6314V27.4562C119.891 27.882 119.199 28.0931 118.414 28.0893C117.634 28.0893 116.991 27.9159 116.487 27.5692ZM118.568 25.4155C118.303 25.4155 118.092 25.4795 117.937 25.6077C117.785 25.7358 117.709 25.9016 117.709 26.1051C117.709 26.3086 117.789 26.4763 117.948 26.6082C118.107 26.7401 118.333 26.8061 118.625 26.8061C119.209 26.8061 119.771 26.6365 120.313 26.2973V25.4155H118.568Z" fill="white"/>
<path d="M115.384 27.7275C115.384 27.8933 115.285 27.9762 115.088 27.9762H113.786C113.638 27.9762 113.479 27.9253 113.308 27.8236C113.138 27.7181 113.005 27.5918 112.91 27.4449L111.91 25.8677C111.671 25.4833 111.43 25.195 111.187 25.0028C110.945 24.8068 110.653 24.7089 110.312 24.7089H109.089V27.4562C109.089 27.6031 109.036 27.7275 108.93 27.8292C108.828 27.9272 108.703 27.9762 108.555 27.9762H107.486C107.338 27.9762 107.211 27.9235 107.105 27.8179C106.999 27.7087 106.946 27.5805 106.946 27.4335V20.407C106.946 20.26 106.999 20.1319 107.105 20.0226C107.211 19.9133 107.338 19.8587 107.486 19.8587H108.555C108.703 19.8587 108.828 19.9133 108.93 20.0226C109.036 20.1319 109.089 20.26 109.089 20.407V23.1147H110.312C110.645 23.1147 110.937 23.0243 111.187 22.8434C111.441 22.6625 111.682 22.3704 111.91 21.9672L112.791 20.407C112.992 20.0452 113.265 19.8624 113.61 19.8587H114.923C115.105 19.8587 115.196 19.9378 115.196 20.0961C115.196 20.1828 115.164 20.2864 115.099 20.407L113.866 22.6286C113.687 22.9527 113.486 23.2203 113.263 23.4313C113.043 23.6423 112.755 23.7912 112.399 23.8779C112.649 23.9306 112.905 24.087 113.166 24.3471C113.432 24.6071 113.665 24.8897 113.866 25.195L115.287 27.4449C115.351 27.5541 115.384 27.6484 115.384 27.7275Z" fill="white"/>
<path d="M95.5511 27.5692C95.0507 27.2225 94.8005 26.7326 94.8005 26.0995C94.8005 25.4663 95.0507 24.9802 95.5511 24.641C96.0552 24.3018 96.7034 24.1323 97.4957 24.1323H99.3777C99.3777 23.6913 99.2848 23.3842 99.0991 23.2108C98.9133 23.0375 98.5874 22.9508 98.1211 22.9508C97.6587 22.9508 97.3327 23.0658 97.1431 23.2956C96.9574 23.5218 96.7281 23.6348 96.4551 23.6348H95.6079C95.5056 23.6348 95.4203 23.6028 95.3521 23.5387C95.2876 23.4709 95.2554 23.388 95.2554 23.29C95.2554 22.2084 96.2884 21.6676 98.3542 21.6676C99.2564 21.6676 99.9804 21.8692 100.526 22.2725C101.072 22.6719 101.345 23.2919 101.345 24.1323V27.6314C101.345 27.7332 101.313 27.8161 101.248 27.8801C101.184 27.9442 101.101 27.9762 100.998 27.9762H99.9008C99.7985 27.9762 99.7151 27.9442 99.6506 27.8801C99.5862 27.8123 99.554 27.7294 99.554 27.6314V27.4562C98.955 27.882 98.2633 28.0931 97.4786 28.0893C96.6977 28.0893 96.0552 27.9159 95.5511 27.5692ZM97.6321 25.4155C97.3668 25.4155 97.1564 25.4795 97.001 25.6077C96.8494 25.7358 96.7735 25.9016 96.7735 26.1051C96.7735 26.3086 96.8532 26.4763 97.0124 26.6082C97.1716 26.7401 97.3971 26.8061 97.689 26.8061C98.2727 26.8061 98.8356 26.6365 99.3777 26.2973V25.4155H97.6321Z" fill="white"/>
<path d="M87.2043 27.6314V22.1311C87.2043 22.0294 87.2366 21.9465 87.301 21.8824C87.3692 21.8146 87.4526 21.7807 87.5512 21.7807H88.8248C88.9234 21.7807 89.0049 21.8146 89.0693 21.8824C89.1376 21.9465 89.1717 22.0294 89.1717 22.1311V22.4873C89.8237 21.9408 90.5173 21.6676 91.2527 21.6676C91.9919 21.6676 92.5927 21.8918 93.0552 22.3403C93.5176 22.785 93.7488 23.4671 93.7488 24.3866V27.6314C93.7488 27.7294 93.7147 27.8123 93.6465 27.8801C93.582 27.9442 93.4987 27.9762 93.3963 27.9762H92.1283C92.0298 27.9762 91.9464 27.9442 91.8782 27.8801C91.8137 27.8123 91.7815 27.7294 91.7815 27.6314V24.3866C91.7815 23.4859 91.4195 23.0356 90.6955 23.0356C90.2217 23.0356 89.7137 23.3051 89.1717 23.844V27.6314C89.1717 27.7294 89.1376 27.8123 89.0693 27.8801C89.0049 27.9442 88.9234 27.9762 88.8248 27.9762H87.5512C87.4526 27.9762 87.3692 27.9442 87.301 27.8801C87.2366 27.8123 87.2043 27.7294 87.2043 27.6314Z" fill="white"/>
<path d="M79.2556 27.6314V22.1311C79.2556 22.0294 79.2878 21.9465 79.3523 21.8824C79.4205 21.8146 79.5039 21.7807 79.6025 21.7807H80.8761C80.9747 21.7807 81.0562 21.8146 81.1206 21.8824C81.1888 21.9465 81.2229 22.0294 81.2229 22.1311V22.4873C81.8749 21.9408 82.5686 21.6676 83.304 21.6676C84.0432 21.6676 84.644 21.8918 85.1064 22.3403C85.5689 22.785 85.8001 23.4671 85.8001 24.3866V27.6314C85.8001 27.7294 85.766 27.8123 85.6978 27.8801C85.6333 27.9442 85.5499 27.9762 85.4476 27.9762H84.1796C84.0811 27.9762 83.9977 27.9442 83.9294 27.8801C83.865 27.8123 83.8328 27.7294 83.8328 27.6314V24.3866C83.8328 23.4859 83.4708 23.0356 82.7468 23.0356C82.2729 23.0356 81.765 23.3051 81.2229 23.844V27.6314C81.2229 27.7294 81.1888 27.8123 81.1206 27.8801C81.0562 27.9442 80.9747 27.9762 80.8761 27.9762H79.6025C79.5039 27.9762 79.4205 27.9442 79.3523 27.8801C79.2878 27.8123 79.2556 27.7294 79.2556 27.6314Z" fill="white"/>
<path d="M68.9869 27.4561L70.414 22.0746C70.8007 20.6086 72.0591 19.8737 74.1895 19.87H77.2542C77.3944 19.87 77.51 19.9227 77.601 20.0282C77.6958 20.1338 77.7432 20.2562 77.7432 20.3957V27.4561C77.7432 27.6031 77.6901 27.7275 77.584 27.8292C77.4778 27.9272 77.3508 27.9762 77.203 27.9762H76.1341C75.9786 27.9762 75.8498 27.9272 75.7474 27.8292C75.6489 27.7275 75.5996 27.5994 75.5996 27.4448V26.0203H71.5569L71.1759 27.4448C71.138 27.5994 71.0527 27.7275 70.9201 27.8292C70.7874 27.9272 70.6471 27.9762 70.4993 27.9762H69.3792C69.2313 27.9762 69.1252 27.9348 69.0608 27.8518C68.9963 27.7652 68.9641 27.6898 68.9641 27.6257C68.9679 27.5617 68.9755 27.5051 68.9869 27.4561ZM71.9776 24.4205H75.5996V21.4697H73.9791C73.6152 21.4697 73.2968 21.5734 73.0239 21.7806C72.7547 21.9841 72.5728 22.2593 72.478 22.606L71.9776 24.4205Z" fill="white"/>
<path d="M59.3149 28.5642L60.0598 28.6603C60.5943 28.6603 60.9676 28.2702 61.1799 27.4901C60.5355 27.4901 59.9973 27.2979 59.5651 26.9135C59.133 26.5254 58.7615 25.8376 58.4507 24.8502L57.6035 22.1199C57.5921 22.0897 57.5864 22.0558 57.5864 22.0181C57.5864 21.9767 57.6092 21.9277 57.6547 21.8711C57.7039 21.8146 57.776 21.7845 57.8707 21.7807H59.0591C59.169 21.7807 59.2732 21.8184 59.3718 21.8938C59.4741 21.9654 59.5405 22.0558 59.5708 22.1651L60.3157 24.5619C60.5014 25.1498 60.689 25.5568 60.8786 25.7829C61.0719 26.0091 61.2993 26.1221 61.5609 26.1221L62.6924 22.1651C62.7227 22.0558 62.7815 21.9654 62.8686 21.8938C62.9596 21.8184 63.0601 21.7807 63.17 21.7807H64.3697C64.4645 21.7807 64.5346 21.8108 64.5801 21.8711C64.6256 21.9314 64.6483 21.9823 64.6483 22.0238C64.6483 22.0615 64.6445 22.0935 64.637 22.1199L63.1472 27.3997C62.8819 28.3343 62.5521 29.0013 62.1579 29.4008C61.7675 29.8003 61.2633 30 60.6454 30C60.0276 30 59.5898 29.9774 59.332 29.9322C59.078 29.8869 58.9188 29.8304 58.8544 29.7626C58.7899 29.6985 58.7577 29.6231 58.7577 29.5365V28.9146C58.7577 28.8129 58.7899 28.7281 58.8544 28.6603C58.9188 28.5962 59.0022 28.5642 59.1046 28.5642H59.3149Z" fill="white"/>
<path d="M50.5076 20.2204C50.5076 20.1187 50.5398 20.0358 50.6042 19.9717C50.6725 19.9039 50.7559 19.87 50.8544 19.87H52.1281C52.2266 19.87 52.3081 19.9039 52.3725 19.9717C52.4408 20.0358 52.4749 20.1187 52.4749 20.2204V21.9559C53.089 21.7637 53.6367 21.6676 54.1181 21.6676C55.0506 21.6676 55.7917 21.9446 56.3413 22.4986C56.891 23.0488 57.1658 23.8439 57.1658 24.8841C57.1658 27.0209 55.9623 28.0893 53.5552 28.0893C53.0056 28.0893 52.4351 28.029 51.8438 27.9084C51.2562 27.784 50.8108 27.6333 50.5076 27.4561V20.2204ZM52.4749 23.2617V26.5969C52.8009 26.6836 53.216 26.7269 53.7201 26.7269C54.2243 26.7269 54.5863 26.5818 54.8061 26.2917C55.0298 26.0015 55.1416 25.5323 55.1416 24.8841C55.1416 24.2359 55.0317 23.7667 54.8118 23.4765C54.5957 23.1826 54.2281 23.0356 53.7087 23.0356C53.3752 23.0356 52.9639 23.111 52.4749 23.2617Z" fill="white"/>
<path d="M111.945 15.6778V8.27254C111.945 8.17079 111.977 8.08788 112.042 8.02382C112.11 7.95598 112.193 7.92206 112.292 7.92206H113.389C113.488 7.92206 113.569 7.95598 113.634 8.02382C113.702 8.08788 113.736 8.17079 113.736 8.27254V8.44213C114.335 8.02005 115.031 7.80901 115.823 7.80901C116.615 7.80901 117.277 8.08788 117.807 8.64563C118.338 9.19962 118.603 9.99479 118.603 11.0312C118.603 12.0637 118.328 12.8552 117.779 13.4054C117.229 13.9556 116.488 14.2307 115.556 14.2307C115.074 14.2307 114.526 14.1346 113.912 13.9424V15.6778C113.912 15.7796 113.878 15.8625 113.81 15.9266C113.746 15.9944 113.664 16.0283 113.566 16.0283H112.292C112.193 16.0283 112.11 15.9944 112.042 15.9266C111.977 15.8625 111.945 15.7796 111.945 15.6778ZM113.912 12.6366C114.401 12.7911 114.813 12.8683 115.146 12.8683C115.666 12.8683 116.033 12.7214 116.249 12.4274C116.469 12.1335 116.579 11.6643 116.579 11.0198C116.579 10.3754 116.475 9.90811 116.266 9.61793C116.062 9.32398 115.753 9.17701 115.34 9.17701C114.93 9.17701 114.454 9.34659 113.912 9.68577V12.6366Z" fill="white"/>
<path d="M103.996 11.5116V8.27251C103.996 8.17075 104.029 8.08785 104.093 8.02378C104.161 7.95594 104.245 7.92203 104.343 7.92203H105.617C105.715 7.92203 105.797 7.95594 105.861 8.02378C105.93 8.08785 105.964 8.17075 105.964 8.27251V11.5116C105.964 12.4161 106.324 12.8683 107.044 12.8683C107.518 12.8683 108.028 12.597 108.574 12.0543V8.27251C108.574 8.17075 108.606 8.08785 108.67 8.02378C108.738 7.95594 108.822 7.92203 108.92 7.92203H110.188C110.291 7.92203 110.374 7.95594 110.438 8.02378C110.507 8.08785 110.541 8.17075 110.541 8.27251V13.7728C110.541 13.8708 110.507 13.9537 110.438 14.0215C110.374 14.0856 110.291 14.1176 110.188 14.1176H108.92C108.822 14.1176 108.738 14.0856 108.67 14.0215C108.606 13.9537 108.574 13.8708 108.574 13.7728V13.411C107.922 13.9574 107.226 14.2307 106.487 14.2307C105.751 14.2307 105.152 14.0083 104.69 13.5636C104.228 13.1152 103.996 12.4312 103.996 11.5116Z" fill="white"/>
<path d="M96.9571 13.4167C96.3657 12.874 96.0701 12.0751 96.0701 11.0198C96.0701 9.96087 96.3657 9.16193 96.9571 8.62302C97.5484 8.08034 98.3975 7.80901 99.5044 7.80901C100.615 7.80901 101.466 8.08034 102.057 8.62302C102.649 9.16193 102.944 9.96087 102.944 11.0198C102.944 12.0751 102.649 12.874 102.057 13.4167C101.466 13.9594 100.615 14.2307 99.5044 14.2307C98.3975 14.2307 97.5484 13.9594 96.9571 13.4167ZM98.3956 9.5501C98.1606 9.85535 98.0431 10.3434 98.0431 11.0142C98.0431 11.685 98.1606 12.1749 98.3956 12.4839C98.6306 12.793 99.0002 12.9475 99.5044 12.9475C100.012 12.9475 100.384 12.793 100.619 12.4839C100.858 12.1749 100.977 11.685 100.977 11.0142C100.977 10.3434 100.858 9.85535 100.619 9.5501C100.384 9.24484 100.012 9.09221 99.5044 9.09221C99.0002 9.09221 98.6306 9.24484 98.3956 9.5501Z" fill="white"/>
<path d="M95.0694 9.3579L94.1938 9.32398C93.6821 9.32398 93.1931 9.60286 92.7268 10.1606V13.7728C92.7268 13.8746 92.6927 13.9575 92.6245 14.0215C92.5601 14.0856 92.4786 14.1176 92.38 14.1176H91.1064C91.004 14.1176 90.9206 14.0856 90.8562 14.0215C90.7917 13.9575 90.7595 13.8746 90.7595 13.7728V8.27254C90.7595 8.17079 90.7917 8.08788 90.8562 8.02382C90.9244 7.95598 91.0078 7.92206 91.1064 7.92206H92.38C92.4824 7.92206 92.5657 7.95598 92.6302 8.02382C92.6946 8.08788 92.7268 8.17079 92.7268 8.27254V8.62868C93.1135 8.3498 93.485 8.14441 93.8413 8.01251C94.2014 7.87684 94.6714 7.80901 95.2514 7.80901C95.3537 7.80901 95.4371 7.84292 95.5016 7.91076C95.5698 7.97482 95.6039 8.05585 95.6039 8.15383V9.01307C95.6039 9.11482 95.5698 9.19773 95.5016 9.2618C95.4371 9.32587 95.3537 9.3579 95.2514 9.3579H95.0694Z" fill="white"/>
<path d="M85.6879 13.6428C84.8274 13.6428 84.1318 13.3846 83.6011 12.8683C83.0742 12.352 82.8108 11.636 82.8108 10.7202C82.8108 9.80448 83.1121 9.09033 83.7149 8.5778C84.3176 8.06527 85.1818 7.80901 86.3076 7.80901C86.8573 7.80901 87.4278 7.87119 88.0191 7.99555C88.6104 8.11615 89.0558 8.26501 89.3553 8.44213V13.6767C89.3553 14.5171 89.0767 15.137 88.5194 15.5365C87.9622 15.9397 87.1795 16.1414 86.1712 16.1414C85.1667 16.1414 84.3915 16.0151 83.8456 15.7626C83.3036 15.5139 83.0325 15.1012 83.0325 14.5246C83.0325 14.4229 83.0648 14.3381 83.1292 14.2703C83.1974 14.2062 83.2827 14.1742 83.3851 14.1742H84.2323C84.5052 14.1742 84.7232 14.274 84.8861 14.4738C85.0946 14.73 85.4642 14.8582 85.9949 14.8582C86.5294 14.8582 86.8952 14.7715 87.0923 14.5981C87.2894 14.4248 87.388 14.1176 87.388 13.6767V13.411C86.7815 13.5655 86.2148 13.6428 85.6879 13.6428ZM86.1882 9.17701C85.2898 9.17324 84.8407 9.68953 84.8407 10.7259C84.8407 11.7585 85.2785 12.2748 86.1541 12.2748C86.518 12.2748 86.9293 12.2183 87.388 12.1052V9.30137C87.062 9.21469 86.6621 9.17324 86.1882 9.17701Z" fill="white"/>
<path d="M69.585 6.54832C69.585 6.40134 69.638 6.27509 69.7442 6.16957C69.8503 6.06405 69.9773 6.01129 70.1251 6.01129H74.7478C75.8812 6.01129 76.717 6.33539 77.2553 6.98359C77.5547 7.34161 77.7044 7.79949 77.7044 8.35724C77.7044 8.91122 77.4486 9.39549 76.9368 9.81003C77.6646 10.1982 78.0285 10.8012 78.0285 11.619C78.0285 12.4367 77.7367 13.0586 77.1529 13.4844C76.5729 13.9065 75.8603 14.1175 75.015 14.1175H70.1251C69.9773 14.1175 69.8503 14.0667 69.7442 13.9649C69.638 13.8594 69.585 13.7331 69.585 13.5862V6.54832ZM71.7286 12.5913H74.9809C75.2728 12.5913 75.4964 12.5046 75.6518 12.3312C75.8072 12.1579 75.885 11.9204 75.885 11.619C75.885 11.3175 75.8072 11.0801 75.6518 10.9067C75.4964 10.7333 75.2728 10.6467 74.9809 10.6467H71.7286V12.5913ZM71.7286 9.15995H74.7705C75.0093 9.15995 75.2007 9.09023 75.3448 8.9508C75.4888 8.80759 75.5609 8.60974 75.5609 8.35724C75.5609 8.10098 75.4888 7.90124 75.3448 7.75804C75.2007 7.61483 75.0093 7.54323 74.7705 7.54323H71.7286V9.15995Z" fill="white"/>
<path d="M59.2027 13.5975L60.6298 8.21592C61.0165 6.74994 62.275 6.01506 64.4053 6.01129H67.47C67.6102 6.01129 67.7259 6.06405 67.8168 6.16957C67.9116 6.27509 67.959 6.39757 67.959 6.53701V13.5975C67.959 13.7444 67.9059 13.8688 67.7998 13.9706C67.6936 14.0685 67.5667 14.1175 67.4188 14.1175H66.3499C66.1945 14.1175 66.0656 14.0685 65.9632 13.9706C65.8647 13.8688 65.8154 13.7407 65.8154 13.5862V12.1616H61.7727L61.3918 13.5862C61.3538 13.7407 61.2686 13.8688 61.1359 13.9706C61.0032 14.0685 60.863 14.1175 60.7151 14.1175H59.595C59.4472 14.1175 59.341 14.0761 59.2766 13.9932C59.2122 13.9065 59.1799 13.8311 59.1799 13.7671C59.1837 13.703 59.1913 13.6465 59.2027 13.5975ZM62.1935 10.5619H65.8154V7.61106H64.1949C63.831 7.61106 63.5126 7.7147 63.2397 7.92197C62.9705 8.12547 62.7886 8.40058 62.6938 8.74729L62.1935 10.5619Z" fill="white"/>
<path d="M59.0546 13.8688C59.0546 14.0346 58.956 14.1176 58.7589 14.1176H57.4569C57.309 14.1176 57.1498 14.0667 56.9792 13.9649C56.8087 13.8594 56.676 13.7332 56.5812 13.5862L55.5805 12.009C55.3417 11.6246 55.101 11.3363 54.8584 11.1441C54.6158 10.9482 54.3239 10.8502 53.9828 10.8502H52.7603V13.5975C52.7603 13.7445 52.7072 13.8688 52.6011 13.9706C52.4987 14.0686 52.3736 14.1176 52.2258 14.1176H51.1569C51.009 14.1176 50.882 14.0648 50.7759 13.9593C50.6698 13.85 50.6167 13.7219 50.6167 13.5749V6.54833C50.6167 6.40136 50.6698 6.27322 50.7759 6.16393C50.882 6.05464 51.009 6 51.1569 6H52.2258C52.3736 6 52.4987 6.05464 52.6011 6.16393C52.7072 6.27322 52.7603 6.40136 52.7603 6.54833V9.25607H53.9828C54.3163 9.25607 54.6082 9.16562 54.8584 8.98473C55.1124 8.80383 55.3531 8.51177 55.5805 8.10853L56.4618 6.54833C56.6627 6.18655 56.9356 6.00377 57.2806 6H58.594C58.776 6 58.867 6.07914 58.867 6.23742C58.867 6.3241 58.8347 6.42774 58.7703 6.54833L57.5365 8.76992C57.3583 9.09402 57.1574 9.36159 56.9337 9.57263C56.7139 9.78367 56.4258 9.93253 56.0695 10.0192C56.3197 10.072 56.5755 10.2284 56.8371 10.4884C57.1024 10.7484 57.3356 11.0311 57.5365 11.3363L58.9579 13.5862C59.0224 13.6955 59.0546 13.7897 59.0546 13.8688Z" fill="white"/>
</svg>
