<svg width="16" height="16" viewBox="0 0 16 16" fill="none" xmlns="http://www.w3.org/2000/svg">
<path d="M15.9919 8.61576C15.9802 9.02638 15.9576 9.43659 15.9241 9.84638C15.8905 10.2562 15.8458 10.6665 15.79 11.0773C15.7342 11.4879 15.6668 11.8983 15.5878 12.3083C15.5411 12.5514 15.4907 12.794 15.4366 13.0361C15.3938 13.2094 15.3333 13.3779 15.2559 13.5389C15.0409 13.9936 14.6934 14.427 14.2872 14.7698C13.9062 15.0914 13.4688 15.3333 13.0356 15.4379C11.4339 15.7993 9.79814 15.9879 8.15625 16.0004H7.84375C6.20166 15.9879 4.56564 15.7993 2.96375 15.4379C2.53125 15.3333 2.09375 15.0917 1.7125 14.7698C1.30625 14.4276 0.958437 13.9942 0.74375 13.5389C0.666298 13.3779 0.605564 13.2094 0.5625 13.0361C0.508125 12.7936 0.457708 12.551 0.41125 12.3083C0.332708 11.8983 0.265417 11.4879 0.209375 11.0773C0.153333 10.6667 0.108646 10.2564 0.0753125 9.84638C0.0415625 9.43638 0.0189583 9.02617 0.0075 8.61576C0.0053125 8.51482 0.0028125 8.41388 0.001875 8.31294C0.001875 8.29357 0.001875 8.27357 0.001875 8.25388H0V7.87388C0 7.81857 0 7.76294 0.0015625 7.70763C0.0028125 7.59971 0.00479167 7.49221 0.0075 7.38513C0.0175 7.03576 0.0346875 6.68794 0.0625 6.33826L0.0671875 6.27388C0.07 6.23419 0.0734375 6.19419 0.076875 6.15419C0.108958 5.74524 0.152813 5.33669 0.208438 4.92857C0.208561 4.9268 0.208561 4.92502 0.208438 4.92326C0.208438 4.91701 0.208438 4.91107 0.210938 4.90513C0.252604 4.5943 0.301875 4.28388 0.35875 3.97388C0.374687 3.88013 0.3925 3.78638 0.410625 3.69263C0.44875 3.49451 0.489375 3.29659 0.5325 3.09888C0.541875 3.05482 0.551875 3.00982 0.561875 2.96576C0.604686 2.7923 0.665212 2.62371 0.7425 2.46263C0.9575 2.00763 1.305 1.57419 1.71125 1.23169C1.85414 1.11106 2.00592 1.00137 2.16531 0.903569C2.31283 0.813197 2.46777 0.735522 2.62844 0.671381C2.73746 0.62723 2.84952 0.590991 2.96375 0.562944C3.38896 0.467319 3.81469 0.383986 4.24094 0.312944L4.25094 0.284506L4.25969 0.309819C7.17373 -0.175824 10.1544 -0.0898514 13.0356 0.562944C13.4688 0.667319 13.9062 0.909506 14.2875 1.23076C14.6938 1.57451 15.0409 2.00701 15.2563 2.46169C15.3338 2.62271 15.3946 2.79131 15.4375 2.96482C15.4919 3.20711 15.5423 3.44961 15.5887 3.69232C15.6675 4.10232 15.7349 4.51263 15.7909 4.92326C15.847 5.33388 15.8917 5.74419 15.925 6.15419C15.9592 6.56461 15.9818 6.97482 15.9928 7.38482C16.0039 7.79482 16.0035 8.20513 15.9919 8.61576Z" fill="#B22234"/>
<path d="M4.31543 0.401367C7.20346 -0.0747155 10.1568 0.0126044 13.0117 0.65918V0.660156C13.4263 0.760065 13.8506 0.993222 14.2227 1.30664C14.57 1.60057 14.8723 1.96056 15.082 2.34082L15.166 2.50488C15.2401 2.65863 15.2986 2.81974 15.3398 2.98535V2.98633C15.394 3.22752 15.444 3.46935 15.4902 3.71094C15.5686 4.11908 15.6356 4.5278 15.6914 4.93652C15.7472 5.3453 15.792 5.754 15.8252 6.16211C15.8592 6.57067 15.8816 6.97957 15.8926 7.3877C15.9036 7.79579 15.9032 8.20456 15.8916 8.61328C15.88 9.0219 15.8576 9.4301 15.8242 9.83789C15.7908 10.2458 15.746 10.6545 15.6904 11.0635C15.6349 11.4722 15.5679 11.8809 15.4893 12.2891C15.4429 12.5303 15.3936 12.7715 15.3398 13.0117C15.2988 13.1782 15.2403 13.3405 15.166 13.4951V13.4961C14.9579 13.9362 14.6194 14.3586 14.2227 14.6934C13.8973 14.968 13.5321 15.1808 13.168 15.2969L13.0117 15.3408C11.4176 15.7003 9.78937 15.8879 8.15527 15.9004H7.84473C6.21 15.8879 4.58105 15.7005 2.98633 15.3408H2.9873C2.62488 15.2531 2.25498 15.064 1.91895 14.8076L1.77734 14.6934C1.38065 14.3592 1.04177 13.9368 0.833984 13.4961V13.4951L0.734375 13.2578C0.705336 13.1772 0.679859 13.095 0.65918 13.0117C0.605251 12.7711 0.555863 12.5299 0.509766 12.2891C0.431583 11.8809 0.364378 11.4722 0.308594 11.0635C0.252815 10.6547 0.207982 10.246 0.174805 9.83789C0.158011 9.63384 0.144061 9.42974 0.132812 9.22559L0.107422 8.61328C0.10523 8.51217 0.102495 8.41238 0.101562 8.3125V8.1543H0.0996094V7.87402C0.0996094 7.81864 0.10006 7.76445 0.101562 7.71094V7.70898L0.107422 7.3877C0.112399 7.21387 0.118961 7.0405 0.12793 6.86719L0.162109 6.3457L0.166992 6.28125C0.169736 6.24253 0.173318 6.20311 0.176758 6.16309V6.16211C0.192725 5.95858 0.211573 5.75508 0.233398 5.55176L0.307617 4.94238L0.308594 4.93555C0.308842 4.93198 0.308622 4.92838 0.308594 4.9248L0.30957 4.91797C0.351 4.60895 0.400488 4.3004 0.457031 3.99219V3.99023C0.472737 3.89787 0.490728 3.80534 0.508789 3.71191L0.629883 3.12012C0.63904 3.07708 0.649346 3.03261 0.65918 2.98926C0.700342 2.82263 0.758757 2.66061 0.833008 2.50586V2.50488C1.04107 2.06475 1.37899 1.64288 1.77539 1.30859V1.30762C1.9144 1.19025 2.06271 1.08441 2.21777 0.989258C2.3603 0.901947 2.50982 0.826647 2.66504 0.764648L2.66602 0.763672C2.77044 0.721394 2.8779 0.687033 2.9873 0.660156L2.98633 0.65918C3.40802 0.564363 3.83026 0.48166 4.25293 0.411133L4.2666 0.40918L4.31543 0.401367Z" stroke="black" stroke-opacity="0.15" stroke-width="0.2"/>
<path d="M15.2558 13.5389C15.0408 13.9936 14.6933 14.427 14.2871 14.7698H1.7124C1.30615 14.4276 0.95834 13.9942 0.743652 13.5389H15.2558Z" fill="#F2F2F2"/>
<path d="M15.0923 13.6385C14.8877 14.0168 14.5909 14.3755 14.2485 14.6697H1.75049C1.40814 14.376 1.11112 14.0172 0.906738 13.6385H15.0923Z" stroke="black" stroke-opacity="0.15" stroke-width="0.2"/>
<path d="M15.7901 11.0773C15.7343 11.488 15.6669 11.8983 15.5879 12.3083H0.41166C0.33291 11.8983 0.265514 11.488 0.209473 11.0773H15.7901Z" fill="#F2F2F2"/>
<path d="M15.6743 11.1769C15.6258 11.5209 15.5693 11.8646 15.5044 12.2082H0.495605C0.430883 11.8646 0.374392 11.5209 0.325684 11.1769H15.6743Z" stroke="black" stroke-opacity="0.15" stroke-width="0.2"/>
<path d="M15.9919 8.61575C15.9803 9.02638 15.9577 9.43659 15.9241 9.84638H0.0753809C0.0416309 9.43638 0.0190267 9.02617 0.00756836 8.61575H15.9919Z" fill="#F2F2F2"/>
<path d="M15.8875 8.71536C15.8761 9.05941 15.8575 9.40314 15.8308 9.74661H0.168701C0.141812 9.40298 0.122247 9.05928 0.111084 8.71536H15.8875Z" stroke="black" stroke-opacity="0.15" stroke-width="0.2"/>
<path d="M15.9919 7.38483H0.00756836C0.0175684 7.03577 0.0347559 6.68796 0.0625684 6.33827L0.0672559 6.27389C0.0700684 6.23421 0.0735059 6.19421 0.0769434 6.15421H15.9241C15.9583 6.56462 15.9809 6.97483 15.9919 7.38483Z" fill="#F2F2F2"/>
<path d="M15.8308 6.25381C15.858 6.59774 15.8776 6.94145 15.8884 7.28506H0.111084C0.121358 6.972 0.136951 6.65993 0.161865 6.34659V6.34561L0.166748 6.28116C0.167387 6.27214 0.168002 6.26288 0.168701 6.25381H15.8308Z" stroke="black" stroke-opacity="0.15" stroke-width="0.2"/>
<path d="M15.7901 4.92325H0.209473C0.209473 4.917 0.209473 4.91106 0.211973 4.90513C0.253639 4.59429 0.30291 4.28388 0.359785 3.97388C0.375723 3.88013 0.393535 3.78638 0.41166 3.69263H15.5879C15.6667 4.10242 15.7341 4.51263 15.7901 4.92325Z" fill="#F2F2F2"/>
<path d="M15.5044 3.79224C15.5691 4.1357 15.6256 4.47946 15.6743 4.82349H0.324707C0.363304 4.546 0.407706 4.26829 0.458496 3.99146V3.99048C0.46971 3.92452 0.482984 3.85865 0.495605 3.79224H15.5044Z" stroke="black" stroke-opacity="0.15" stroke-width="0.2"/>
<path d="M15.2559 2.46168H0.743408C0.958408 2.00668 1.30591 1.57324 1.71216 1.23074H14.2875C14.695 1.57356 15.0409 2.00699 15.2559 2.46168Z" fill="#F2F2F2"/>
<path d="M14.2493 1.33035C14.5924 1.62438 14.8876 1.98333 15.092 2.3616H0.907471C1.11207 1.98327 1.40807 1.6242 1.75024 1.33035H14.2493Z" stroke="black" stroke-opacity="0.15" stroke-width="0.2"/>
<path d="M6.9207 0.0267029V8.61608H0.00789062C0.00539062 8.51514 0.00289062 8.4142 0.00195312 8.31295C0.00195312 8.29327 0.00195312 8.27326 0.00195312 8.25389V7.87389C0.00195312 7.81858 0.00195312 7.76295 0.00351563 7.70764C0.00351563 7.60014 0.00664063 7.49264 0.00976562 7.38545C0.0197656 7.03639 0.0366406 6.68764 0.0628906 6.33858L0.0675781 6.2742C0.0707031 6.23483 0.0738281 6.19483 0.0772656 6.15483C0.109141 5.74566 0.152995 5.33702 0.208828 4.92889C0.208596 4.92713 0.208596 4.92534 0.208828 4.92358C0.209211 4.9175 0.209941 4.91145 0.211016 4.90545C0.252682 4.59441 0.301953 4.28389 0.358828 3.97389C0.375078 3.88014 0.392578 3.78639 0.410703 3.69264C0.448828 3.49452 0.489453 3.2966 0.532578 3.09889C0.541953 3.05452 0.551953 3.00983 0.561953 2.96545C0.604716 2.79209 0.665245 2.62359 0.742578 2.46264C0.957891 2.00733 1.30508 1.57389 1.71133 1.2317C1.85419 1.11089 2.00609 1.0012 2.1657 0.903578C2.31311 0.81311 2.46794 0.735331 2.62852 0.671078C2.73758 0.626839 2.84976 0.5907 2.96414 0.562953C3.38914 0.466911 3.81487 0.383578 4.24133 0.312953L4.25133 0.284203L4.25977 0.309515C5.14043 0.163131 6.02894 0.0686974 6.9207 0.0267029Z" fill="#3C3B6E"/>
<path d="M6.82031 8.51596H0.105469C0.103892 8.44784 0.102192 8.37981 0.101562 8.31186V7.87436L0.103516 7.7103V7.70737C0.103521 7.60165 0.106246 7.49536 0.109375 7.38803C0.11436 7.21409 0.121165 7.04029 0.129883 6.86655L0.163086 6.34604L0.166992 6.28256C0.170131 6.24302 0.173357 6.20299 0.176758 6.16342V6.16245C0.208473 5.75537 0.252072 5.34878 0.307617 4.94272L0.30957 4.92905V4.92319L0.310547 4.9183C0.351985 4.60902 0.400474 4.29981 0.457031 3.99155V3.99057C0.473121 3.89776 0.490763 3.80451 0.508789 3.71127C0.546725 3.51414 0.586976 3.31718 0.629883 3.12045L0.630859 3.11948C0.639926 3.07657 0.649363 3.03317 0.65918 2.98959C0.700289 2.82293 0.758672 2.66092 0.833008 2.5062V2.50522C1.04145 2.0645 1.37884 1.64199 1.77539 1.30795H1.77637C1.91524 1.19055 2.06264 1.0835 2.21777 0.988617C2.28921 0.944772 2.36266 0.904127 2.4375 0.866547L2.66602 0.764008C2.77038 0.721677 2.87786 0.687066 2.9873 0.660492L2.98633 0.659515C3.4075 0.564346 3.82939 0.481559 4.25195 0.411469L4.27637 0.408539C5.11851 0.268563 5.96781 0.176287 6.82031 0.132172V8.51596Z" stroke="black" stroke-opacity="0.15" stroke-width="0.2"/>
<path d="M0.745098 6.51201L0.87791 6.89732L0.529785 6.6592L0.181973 6.89732L0.314785 6.51201L0.0610352 6.33826L0.0657227 6.27389H0.396973L0.438223 6.15451L0.529785 5.88889L0.62166 6.15451L0.66291 6.27389H1.09291L0.745098 6.51201Z" fill="#F2F2F2"/>
<path d="M0.568848 6.30685L0.591309 6.37424H0.77002L0.688965 6.4299L0.625488 6.47287L0.650879 6.54416L0.685059 6.64377L0.586426 6.57639L0.529785 6.5383L0.473145 6.57639L0.375488 6.64279L0.409668 6.54416L0.434082 6.47287L0.371582 6.4299L0.290527 6.37424H0.468262L0.491699 6.30685L0.529785 6.19455L0.568848 6.30685Z" stroke="black" stroke-opacity="0.15" stroke-width="0.2"/>
<path d="M2.39052 5.88889L2.52333 6.27389H2.95364L2.60552 6.51201L2.73864 6.89701L2.39052 6.6592L2.04271 6.89701L2.17552 6.51201L1.82739 6.27389H2.2577L2.39052 5.88889Z" fill="#F2F2F2"/>
<path d="M2.45239 6.37424H2.63013L2.54907 6.4299L2.4856 6.47287L2.51099 6.54514L2.54419 6.64279L2.44653 6.57639L2.39087 6.5383L2.33423 6.57639L2.23462 6.64377L2.26978 6.54416L2.29517 6.47287L2.23169 6.4299L2.15063 6.37424H2.32935L2.35181 6.30685L2.38989 6.19455L2.45239 6.37424Z" stroke="black" stroke-opacity="0.15" stroke-width="0.2"/>
<path d="M4.25111 5.88889L4.38393 6.27389H4.81393L4.46611 6.51201L4.59893 6.89701L4.25111 6.6592L3.90299 6.89701L4.03611 6.51201L3.68799 6.27389H4.11799L4.25111 5.88889Z" fill="#F2F2F2"/>
<path d="M4.31299 6.37424H4.49072L4.40967 6.4299L4.34717 6.47287L4.37158 6.54416L4.40576 6.64377L4.30713 6.57639L4.25146 6.5383L4.19482 6.57639L4.09619 6.64279L4.13037 6.54514L4.15576 6.47287L4.09229 6.4299L4.01123 6.37424H4.18896L4.2124 6.30685L4.25049 6.19455L4.31299 6.37424Z" stroke="black" stroke-opacity="0.15" stroke-width="0.2"/>
<path d="M6.1114 5.88889L6.24452 6.27389H6.67452L6.32671 6.51201L6.45952 6.89701L6.1114 6.6592L5.76358 6.89701L5.8964 6.51201L5.54858 6.27389H5.97858L6.1114 5.88889Z" fill="#F2F2F2"/>
<path d="M6.17358 6.37424H6.35132L6.27026 6.4299L6.20776 6.47287L6.23218 6.54416L6.26636 6.64377L6.16772 6.57639L6.11108 6.5383L6.05542 6.57639L5.95581 6.64377L5.99097 6.54416L6.01538 6.47287L5.95288 6.4299L5.87183 6.37424H6.04956L6.073 6.30685L6.11108 6.19455L6.17358 6.37424Z" stroke="black" stroke-opacity="0.15" stroke-width="0.2"/>
<path d="M5.17812 7.32199L5.31093 7.7073H5.74093L5.39312 7.94543L5.52593 8.33043L5.17812 8.0923L4.82999 8.33043L4.9628 7.94543L4.61499 7.7073H5.04499L5.17812 7.32199Z" fill="#F2F2F2"/>
<path d="M5.23999 7.80734H5.41772L5.33667 7.86301L5.27417 7.90598L5.29858 7.97824L5.33179 8.0759L5.23413 8.00949L5.17847 7.97141L5.12183 8.00949L5.02319 8.0759L5.05737 7.97824L5.08179 7.90598L5.01929 7.86301L4.93823 7.80734H5.11597L5.1394 7.73996L5.17749 7.62766L5.23999 7.80734Z" stroke="black" stroke-opacity="0.15" stroke-width="0.2"/>
<path d="M3.378 7.32199L3.51112 7.7073H3.94112L3.593 7.94543L3.72612 8.33043L3.378 8.0923L3.03019 8.33043L3.163 7.94543L2.81519 7.7073H3.24519L3.378 7.32199Z" fill="#F2F2F2"/>
<path d="M3.44019 7.80734H3.61792L3.53687 7.86301L3.47339 7.90598L3.49878 7.97824L3.53198 8.0759L3.43433 8.00949L3.37769 7.97141L3.32104 8.00949L3.22339 8.0759L3.25757 7.97824L3.28198 7.90598L3.21948 7.86301L3.13843 7.80734H3.31616L3.3396 7.73996L3.37769 7.62766L3.44019 7.80734Z" stroke="black" stroke-opacity="0.15" stroke-width="0.2"/>
<path d="M1.52895 7.32199L1.66176 7.7073H2.09207L1.74395 7.94543L1.87707 8.33043L1.52895 8.0923L1.18113 8.33043L1.31395 7.94543L0.96582 7.7073H1.39613L1.52895 7.32199Z" fill="#F2F2F2"/>
<path d="M1.59082 7.80734H1.76855L1.6875 7.86301L1.62402 7.90598L1.64941 7.97824L1.68262 8.0759L1.58496 8.00949L1.5293 7.97141L1.47266 8.00949L1.37402 8.07687L1.4082 7.97824L1.43359 7.90598L1.37012 7.86301L1.28906 7.80734H1.46777L1.49023 7.73996L1.52832 7.62766L1.59082 7.80734Z" stroke="black" stroke-opacity="0.15" stroke-width="0.2"/>
<path d="M2.71623 1.23075L2.73811 1.29325L2.64623 1.23075L2.39061 1.05544L2.13436 1.23075L2.04248 1.29325L2.06436 1.23075L2.17529 0.908566L2.16654 0.902628C2.31406 0.812256 2.469 0.734581 2.62967 0.670441H2.95342L2.60529 0.908566L2.71623 1.23075Z" fill="#F2F2F2"/>
<path d="M2.54932 0.825714L2.48584 0.868683L2.51025 0.940948L2.54443 1.03958L2.44678 0.973175L2.39111 0.934113L2.33447 0.973175L2.23486 1.03958L2.26123 0.963409C2.36733 0.900809 2.47727 0.845288 2.59033 0.796417L2.54932 0.825714Z" stroke="black" stroke-opacity="0.15" stroke-width="0.2"/>
<path d="M4.57705 1.23075L4.59893 1.29356L4.50705 1.23075L4.25111 1.05544L3.99486 1.23075L3.90299 1.29356L3.92486 1.23075L4.03611 0.908251L3.68799 0.670438H4.11799L4.24111 0.313563L4.25111 0.285126L4.25986 0.310438L4.38393 0.670438H4.81393L4.46611 0.908251L4.57705 1.23075Z" fill="#F2F2F2"/>
<path d="M4.31299 0.770477H4.49072L4.40967 0.826141L4.34717 0.86911L4.37158 0.940399L4.40576 1.03903L4.30811 0.972626L4.25146 0.93454L4.19482 0.972626L4.09521 1.04001L4.13037 0.940399L4.15576 0.86911L4.09229 0.826141L4.01123 0.770477H4.18896L4.2124 0.703094L4.25049 0.59079L4.31299 0.770477Z" stroke="black" stroke-opacity="0.15" stroke-width="0.2"/>
<path d="M6.1114 0.285126L6.24452 0.670438H6.67452L6.32671 0.908563L6.45952 1.29356L6.1114 1.05575L5.76358 1.29356L5.8964 0.908563L5.54858 0.670438H5.97858L6.1114 0.285126Z" fill="#F2F2F2"/>
<path d="M6.17358 0.770477H6.35132L6.27026 0.826141L6.20776 0.86911L6.23218 0.941376L6.26636 1.04001L6.16772 0.973602L6.11108 0.93454L6.05542 0.973602L5.95581 1.04001L5.99097 0.941376L6.01538 0.86911L5.95288 0.826141L5.87183 0.770477H6.04956L6.073 0.703094L6.11108 0.59079L6.17358 0.770477Z" stroke="black" stroke-opacity="0.15" stroke-width="0.2"/>
<path d="M5.17812 1.71857L5.31093 2.10357H5.74093L5.39312 2.34169L5.52593 2.727L5.17812 2.48888L4.82999 2.727L4.9628 2.34169L4.61499 2.10357H5.04499L5.17812 1.71857Z" fill="#F2F2F2"/>
<path d="M5.23999 2.20392H5.41772L5.33667 2.25958L5.27417 2.30255L5.29858 2.37384L5.33276 2.47345L5.23413 2.40607L5.17847 2.36798L5.12183 2.40607L5.02222 2.47345L5.05737 2.37384L5.08179 2.30255L5.01929 2.25958L4.93823 2.20392H5.11597L5.1394 2.13654L5.17749 2.02423L5.23999 2.20392Z" stroke="black" stroke-opacity="0.15" stroke-width="0.2"/>
<path d="M3.378 1.71857L3.51112 2.10357H3.94112L3.593 2.34169L3.72612 2.727L3.378 2.48888L3.03019 2.727L3.163 2.34169L2.81519 2.10357H3.24519L3.378 1.71857Z" fill="#F2F2F2"/>
<path d="M3.44019 2.20392H3.61792L3.53687 2.25958L3.47339 2.30255L3.49878 2.37482L3.53198 2.47247L3.43433 2.40607L3.37769 2.36798L3.32104 2.40607L3.22339 2.47247L3.25757 2.37384L3.28198 2.30255L3.21948 2.25958L3.13843 2.20392H3.31616L3.3396 2.13654L3.37769 2.02423L3.44019 2.20392Z" stroke="black" stroke-opacity="0.15" stroke-width="0.2"/>
<path d="M1.52895 1.71857L1.66176 2.10357H2.09207L1.74395 2.34169L1.87707 2.727L1.52895 2.48888L1.18113 2.727L1.31395 2.34169L0.96582 2.10357H1.39613L1.52895 1.71857Z" fill="#F2F2F2"/>
<path d="M1.59082 2.20392H1.76855L1.6875 2.25958L1.62402 2.30255L1.64941 2.37482L1.68262 2.47247L1.58496 2.40607L1.5293 2.36798L1.47266 2.40607L1.37305 2.47345L1.4082 2.37384L1.43359 2.30255L1.37012 2.25958L1.28906 2.20392H1.46777L1.49023 2.13654L1.52832 2.02423L1.59082 2.20392Z" stroke="black" stroke-opacity="0.15" stroke-width="0.2"/>
<path d="M0.744766 3.71044L0.877578 4.09419L0.531328 3.85763L0.361328 3.97388C0.377266 3.88013 0.395078 3.78638 0.413203 3.69263C0.451328 3.4945 0.491953 3.29659 0.535078 3.09888L0.664453 3.47388H1.09383L0.772578 3.69263L0.744766 3.71044Z" fill="#F2F2F2"/>
<path d="M0.570312 3.5061L0.592773 3.57349H0.768555L0.71582 3.60962L0.69043 3.62622L0.624023 3.66919L0.650391 3.74341L0.683594 3.84009L0.587891 3.77466L0.53125 3.73657L0.50293 3.75513C0.505711 3.74063 0.50891 3.72571 0.511719 3.71118C0.52684 3.63261 0.54366 3.55434 0.55957 3.47583L0.570312 3.5061Z" stroke="black" stroke-opacity="0.15" stroke-width="0.2"/>
<path d="M2.39052 3.08701L2.52333 3.47232H2.95364L2.60552 3.71013L2.73864 4.09544L2.39052 3.85732L2.04271 4.09544L2.17552 3.71013L1.82739 3.47232H2.2577L2.39052 3.08701Z" fill="#F2F2F2"/>
<path d="M2.45239 3.57236H2.63013L2.54907 3.62802L2.4856 3.67099L2.51099 3.74326L2.54419 3.84091L2.44653 3.77451L2.39087 3.73642L2.33423 3.77451L2.23462 3.84189L2.26978 3.74228L2.29517 3.67099L2.23169 3.62802L2.15063 3.57236H2.32935L2.35181 3.50497L2.38989 3.39267L2.45239 3.57236Z" stroke="black" stroke-opacity="0.15" stroke-width="0.2"/>
<path d="M4.25111 3.08701L4.38393 3.47232H4.81393L4.46611 3.71013L4.59893 4.09544L4.25111 3.85732L3.90299 4.09544L4.03611 3.71013L3.68799 3.47232H4.11799L4.25111 3.08701Z" fill="#F2F2F2"/>
<path d="M4.31299 3.57236H4.49072L4.40967 3.62802L4.34717 3.67099L4.37158 3.74228L4.40576 3.84189L4.30713 3.77451L4.25146 3.73642L4.19482 3.77451L4.09619 3.84091L4.13037 3.74326L4.15576 3.67099L4.09229 3.62802L4.01123 3.57236H4.18896L4.2124 3.50497L4.25049 3.39267L4.31299 3.57236Z" stroke="black" stroke-opacity="0.15" stroke-width="0.2"/>
<path d="M6.1114 3.08701L6.24452 3.47232H6.67452L6.32671 3.71013L6.45952 4.09544L6.1114 3.85732L5.76358 4.09544L5.8964 3.71013L5.54858 3.47232H5.97858L6.1114 3.08701Z" fill="#F2F2F2"/>
<path d="M6.17358 3.57236H6.35132L6.27026 3.62802L6.20776 3.67099L6.23218 3.74228L6.26636 3.84189L6.16772 3.77451L6.11108 3.73642L6.05444 3.77451L5.95679 3.84091L5.99097 3.74228L6.01538 3.67099L5.95288 3.62802L5.87183 3.57236H6.04956L6.073 3.50497L6.11108 3.39267L6.17358 3.57236Z" stroke="black" stroke-opacity="0.15" stroke-width="0.2"/>
<path d="M5.17812 4.52011L5.31093 4.90542H5.74093L5.39312 5.14355L5.52593 5.52855L5.17812 5.29074L4.82999 5.52855L4.9628 5.14355L4.61499 4.90542H5.04499L5.17812 4.52011Z" fill="#F2F2F2"/>
<path d="M5.23999 5.00546H5.41772L5.33667 5.06113L5.27417 5.1041L5.29858 5.17636L5.33276 5.27499L5.23413 5.20859L5.17847 5.16953L5.12183 5.20859L5.02222 5.27499L5.05737 5.17636L5.08179 5.1041L5.01929 5.06113L4.93823 5.00546H5.11597L5.1394 4.93808L5.17749 4.82578L5.23999 5.00546Z" stroke="black" stroke-opacity="0.15" stroke-width="0.2"/>
<path d="M3.378 4.52011L3.51112 4.90542H3.94112L3.593 5.14355L3.72612 5.52855L3.378 5.29074L3.03019 5.52855L3.163 5.14355L2.81519 4.90542H3.24519L3.378 4.52011Z" fill="#F2F2F2"/>
<path d="M3.44019 5.00546H3.61792L3.53687 5.06113L3.47339 5.1041L3.49878 5.17636L3.53296 5.27499L3.43433 5.20859L3.37769 5.16953L3.32202 5.20859L3.22241 5.27499L3.25757 5.17636L3.28198 5.1041L3.21948 5.06113L3.13843 5.00546H3.31616L3.3396 4.93808L3.37769 4.82578L3.44019 5.00546Z" stroke="black" stroke-opacity="0.15" stroke-width="0.2"/>
<path d="M1.52895 4.52011L1.66176 4.90542H2.09207L1.74395 5.14355L1.87707 5.52855L1.52895 5.29074L1.18113 5.52855L1.31395 5.14355L0.96582 4.90542H1.39613L1.52895 4.52011Z" fill="#F2F2F2"/>
<path d="M1.59082 5.00546H1.76855L1.6875 5.06113L1.62402 5.1041L1.64941 5.17636L1.68359 5.27499L1.58496 5.20859L1.5293 5.16953L1.47266 5.20859L1.37305 5.27597L1.4082 5.17636L1.43359 5.1041L1.37012 5.06113L1.28906 5.00546H1.46777L1.49023 4.93808L1.52832 4.82578L1.59082 5.00546Z" stroke="black" stroke-opacity="0.15" stroke-width="0.2"/>
<mask id="path-57-inside-1_2066_2504" fill="white">
<path d="M0.242871 4.90668L0.216309 4.9248L0.208496 4.93011C0.20862 4.92835 0.20862 4.92657 0.208496 4.9248C0.208496 4.91855 0.208496 4.91261 0.210996 4.90668H0.242871Z"/>
</mask>
<path d="M0.242871 4.90668L0.216309 4.9248L0.208496 4.93011C0.20862 4.92835 0.20862 4.92657 0.208496 4.9248C0.208496 4.91855 0.208496 4.91261 0.210996 4.90668H0.242871Z" fill="#F2F2F2"/>
<path d="M0.242871 4.90668L0.355599 5.07188L0.89081 4.70668H0.242871V4.90668ZM0.216309 4.9248L0.32877 5.09019L0.329037 5.09001L0.216309 4.9248ZM0.208496 4.93011L0.00898211 4.91618L-0.0197214 5.32716L0.320957 5.0955L0.208496 4.93011ZM0.208496 4.9248H0.0080089L0.00898211 4.93874L0.208496 4.9248ZM0.210996 4.90668V4.70668H0.0782011L0.026669 4.82907L0.210996 4.90668ZM0.242871 4.90668L0.130143 4.74147L0.103581 4.7596L0.216309 4.9248L0.329037 5.09001L0.355599 5.07188L0.242871 4.90668ZM0.216309 4.9248L0.103847 4.75942L0.0960349 4.76473L0.208496 4.93011L0.320957 5.0955L0.32877 5.09019L0.216309 4.9248ZM0.208496 4.93011L0.40801 4.94405C0.408782 4.933 0.408782 4.92191 0.40801 4.91087L0.208496 4.9248L0.00898211 4.93874C0.00845762 4.93123 0.00845762 4.92369 0.00898211 4.91618L0.208496 4.93011ZM0.208496 4.9248H0.408496C0.408496 4.91981 0.408679 4.92723 0.407738 4.93629C0.406584 4.9474 0.403598 4.96464 0.395323 4.98429L0.210996 4.90668L0.026669 4.82907C0.00612715 4.87785 0.00849609 4.92407 0.00849609 4.9248H0.208496ZM0.210996 4.90668V5.10668H0.242871V4.90668V4.70668H0.210996V4.90668Z" fill="black" fill-opacity="0.15" mask="url(#path-57-inside-1_2066_2504)"/>
</svg>
