<svg width="16" height="16" viewBox="0 0 16 16" fill="none" xmlns="http://www.w3.org/2000/svg">
<g clip-path="url(#clip0_2066_2552)">
<path d="M13.0357 15.4375C9.72065 16.1887 6.27951 16.1887 2.96446 15.4375C1.90196 15.1825 0.818833 14.0997 0.563521 13.0366C-0.188175 9.72126 -0.188495 6.27979 0.562583 2.96436C0.818833 1.90124 1.9029 0.818425 2.96446 0.562488C6.27951 -0.188757 9.72065 -0.188757 13.0357 0.562488C14.0982 0.8178 15.1816 1.90186 15.4366 2.96343C16.1879 6.27848 16.1879 9.71962 15.4366 13.0347C15.1816 14.0972 14.0988 15.1812 13.0357 15.4375Z" fill="#FF0000"/>
<path d="M7.99982 10.993C9.6528 10.993 10.9928 9.653 10.9928 7.99999C10.9928 6.34699 9.6528 5.00696 7.99982 5.00696C6.34684 5.00696 5.00684 6.34699 5.00684 7.99999C5.00684 9.653 6.34684 10.993 7.99982 10.993Z" fill="#FFF212"/>
<path fill-rule="evenodd" clip-rule="evenodd" d="M7.99982 5.34119C9.46821 5.34119 10.6586 6.53157 10.6586 7.99999C10.6586 9.4684 9.46821 10.6588 7.99982 10.6588C6.53143 10.6588 5.34106 9.4684 5.34106 7.99999C5.34106 6.53157 6.53143 5.34119 7.99982 5.34119ZM5.77982 8.79798C6.05164 8.22942 6.42733 7.72701 6.86175 7.30443C6.92965 7.34899 6.99691 7.39526 7.06341 7.44317C6.60724 7.87923 6.20967 8.41885 5.90976 9.08004C5.86052 8.98946 5.81716 8.89521 5.77983 8.79798H5.77982ZM8.18738 7.42564C8.24902 7.47734 8.3098 7.53073 8.36963 7.58582C8.43344 7.53351 8.49812 7.48293 8.56357 7.43411C8.50388 7.38007 8.4432 7.32754 8.38168 7.2765C8.31612 7.3246 8.25131 7.37434 8.18738 7.42564ZM7.80106 7.13081C7.86808 7.17735 7.93438 7.22556 7.99982 7.27556C8.06527 7.22556 8.13157 7.17734 8.19858 7.13081C8.13309 7.08082 8.06679 7.03249 7.99982 6.98581C7.93284 7.03249 7.86654 7.08084 7.80106 7.13081ZM7.81888 7.7484C7.88021 7.80375 7.94052 7.86087 7.99982 7.91984C8.0591 7.86088 8.11945 7.80375 8.18075 7.7484C8.12146 7.69176 8.06112 7.63653 7.99982 7.58287C7.93851 7.63653 7.8782 7.69176 7.81888 7.7484ZM7.43607 7.43412C7.50155 7.48294 7.56625 7.53353 7.63002 7.58583C7.68985 7.53075 7.75065 7.47735 7.8123 7.42567C7.74833 7.37437 7.68351 7.32462 7.61794 7.27652C7.55643 7.32757 7.49576 7.38009 7.43605 7.43412H7.43607ZM8.62543 6.86237C8.5596 6.81212 8.49295 6.76348 8.42562 6.71659C8.349 6.76031 8.2729 6.8062 8.19751 6.85419C8.26634 6.89979 8.33444 6.94715 8.40178 6.99634C8.4756 6.94976 8.55017 6.90511 8.62541 6.86238L8.62543 6.86237ZM8.97737 7.15416C8.91825 7.10098 8.85823 7.04918 8.79738 6.99888C8.7255 7.04241 8.65413 7.08781 8.5835 7.13505C8.64576 7.1847 8.70718 7.23604 8.76773 7.28905C8.83687 7.24229 8.9068 7.1974 8.97735 7.15416H8.97737ZM7.7603 6.59222C7.83942 6.5416 7.91934 6.49322 7.99983 6.44727C8.08036 6.49322 8.16026 6.5416 8.23939 6.59222C8.15885 6.63572 8.07895 6.68134 7.99983 6.72911C7.92074 6.68134 7.84082 6.63572 7.7603 6.59222ZM7.37426 6.86237C7.44009 6.81212 7.5067 6.76348 7.57404 6.71659C7.65069 6.76031 7.72675 6.8062 7.80216 6.85419C7.73332 6.89979 7.66521 6.94715 7.59791 6.99634C7.52405 6.94976 7.44949 6.90511 7.37427 6.86238L7.37426 6.86237ZM7.02228 7.15416C7.08141 7.10098 7.14141 7.04918 7.20228 6.99888C7.27417 7.04241 7.34552 7.08782 7.41617 7.13505C7.35392 7.1847 7.29248 7.23604 7.23194 7.28905C7.16278 7.24229 7.09287 7.1974 7.02228 7.15416ZM5.91311 6.80673C6.15904 6.90529 6.40425 7.02628 6.64364 7.1682C6.2751 7.51947 5.94459 7.93818 5.67264 8.43374C5.63982 8.27643 5.62256 8.11345 5.62256 7.94641C5.62256 7.53345 5.72787 7.14506 5.91309 6.80673H5.91311ZM6.11518 6.49746C6.40503 6.59117 6.69677 6.717 6.98219 6.8724C6.92073 6.92165 6.8601 6.97248 6.80032 7.02499C6.53969 6.88102 6.2719 6.75935 6.00183 6.65781C6.03743 6.60272 6.07528 6.54928 6.11518 6.49745V6.49746ZM6.36865 6.21715C6.69633 6.30307 7.02944 6.43149 7.35585 6.59858C7.28704 6.64465 7.21891 6.69239 7.1516 6.74205C6.84959 6.58737 6.53942 6.46152 6.22849 6.36106C6.2732 6.31115 6.31993 6.26312 6.36866 6.21714L6.36865 6.21715ZM6.73833 5.93119C6.74531 5.93376 6.75264 5.93634 6.7604 5.93895C6.76913 5.94116 6.77783 5.94342 6.78653 5.94565C7.12024 6.03251 7.45965 6.16348 7.792 6.33452C7.70758 6.38055 7.62391 6.42899 7.54114 6.47978C7.21953 6.32312 6.88984 6.19818 6.56067 6.10115C6.55783 6.10033 6.5395 6.09399 6.5188 6.08684C6.58889 6.03098 6.66216 5.97899 6.73833 5.93119ZM9.05868 5.81751C9.0459 5.82158 9.03655 5.82465 9.03376 5.82577C8.68654 5.92695 8.33849 6.05898 7.99983 6.22654C7.66763 6.06216 7.32635 5.93196 6.98565 5.83156C6.97908 5.82963 6.97249 5.8277 6.96589 5.82579C6.95661 5.82341 6.94808 5.82073 6.94025 5.81787C7.25931 5.65875 7.61908 5.56906 7.99983 5.56906C8.38033 5.56906 8.73986 5.65854 9.05867 5.81753L9.05868 5.81751ZM9.4831 6.08863C9.47426 6.09132 9.46607 6.09363 9.45918 6.09528C9.1233 6.19311 8.78671 6.31993 8.45851 6.47978C8.37573 6.42899 8.29209 6.38055 8.20767 6.33452C8.54867 6.159 8.89716 6.02568 9.23925 5.93895C9.24766 5.93764 9.25612 5.9356 9.26443 5.93312C9.34032 5.98091 9.41333 6.03284 9.4831 6.08863ZM9.77117 6.36108C9.46023 6.46153 9.15011 6.58738 8.84807 6.74206C8.78079 6.69241 8.71266 6.64465 8.64381 6.59859C8.97024 6.43151 9.30336 6.30308 9.63104 6.21717C9.67975 6.26313 9.72651 6.31117 9.77119 6.36109L9.77117 6.36108ZM9.99785 6.65783C9.72775 6.75937 9.45998 6.88102 9.19937 7.02501C9.13958 6.9725 9.07892 6.92166 9.01748 6.87242C9.30289 6.71701 9.59465 6.59118 9.88449 6.49748C9.92438 6.54932 9.96225 6.60274 9.99785 6.65784V6.65783ZM10.327 8.43374C10.0551 7.93818 9.72457 7.51947 9.35599 7.1682C9.59539 7.02628 9.84061 6.90529 10.0865 6.80673C10.2717 7.14511 10.3771 7.53343 10.3771 7.94641C10.3771 8.11345 10.3598 8.27648 10.327 8.43374H10.327ZM10.0899 9.08004C9.78999 8.41885 9.39241 7.87923 8.93624 7.44317C9.00279 7.39526 9.07003 7.34899 9.1379 7.30443C9.57235 7.72701 9.94806 8.2294 10.2199 8.79798C10.1826 8.89521 10.1392 8.98946 10.0899 9.08004H10.0899ZM9.71962 9.5877C9.43002 8.84125 9.02195 8.2371 8.5433 7.75331C8.60611 7.69907 8.6699 7.64643 8.73452 7.5954C9.22991 8.08259 9.64718 8.6743 9.91854 9.34998C9.85736 9.43351 9.79096 9.51297 9.71962 9.58772V9.5877ZM9.27086 9.95563L9.23925 9.87068C8.97669 9.16159 8.60851 8.57813 8.17431 8.10203C8.2335 8.04077 8.29396 7.98103 8.35552 7.9229C8.85272 8.44186 9.26124 9.07005 9.507 9.78493C9.43198 9.84647 9.3531 9.90351 9.27086 9.95564V9.95563ZM6.97074 10.09L7.00115 9.99507C7.22018 9.35176 7.57099 8.77837 7.99983 8.29116C8.42868 8.77837 8.77952 9.35176 8.99852 9.99507L9.02966 10.0897C8.71809 10.2397 8.36879 10.3237 7.99985 10.3237C7.6312 10.3237 7.28211 10.2398 6.97074 10.09V10.09ZM6.4927 9.78491C6.73846 9.07007 7.14695 8.44186 7.64415 7.9229C7.70569 7.98103 7.76615 8.04075 7.82534 8.10203C7.39116 8.57815 7.02297 9.16159 6.7604 9.87068L6.72891 9.9557C6.64663 9.90351 6.56773 9.84649 6.49272 9.7849L6.4927 9.78491ZM6.08109 9.34998C6.35249 8.6743 6.76973 8.08259 7.26514 7.5954C7.32976 7.64645 7.39354 7.69907 7.45637 7.75331C6.97772 8.23711 6.56963 8.84125 6.28002 9.5877C6.20869 9.51296 6.1423 9.4335 6.08107 9.34997L6.08109 9.34998Z" fill="#FF0000"/>
<path fill-rule="evenodd" clip-rule="evenodd" d="M8.19871 4.76811L8.0156 3.01409C8.01484 3.0062 8.00817 3 8 3C7.99168 3 7.9849 3.00647 7.98438 3.01464L7.80175 4.76165C7.80126 4.76751 7.80103 4.77307 7.80103 4.77867C7.80103 4.88857 7.89011 4.97766 8 4.97766C8.10989 4.97766 8.19898 4.88857 8.19898 4.77867C8.19898 4.77508 8.19889 4.77151 8.19871 4.76811Z" fill="#FFF212"/>
<path fill-rule="evenodd" clip-rule="evenodd" d="M7.69054 4.77658L7.23735 3.07226C7.23541 3.06458 7.22782 3.05951 7.21978 3.06077C7.21155 3.06206 7.20587 3.0695 7.20661 3.07765L7.2974 4.83186C7.29783 4.83771 7.29847 4.84324 7.29934 4.84875C7.31639 4.95731 7.41823 5.0315 7.52678 5.01443C7.63534 4.99736 7.70951 4.89554 7.69245 4.78698C7.6919 4.78343 7.69125 4.77993 7.69054 4.77658Z" fill="#FFF212"/>
<path fill-rule="evenodd" clip-rule="evenodd" d="M7.18968 4.86406L6.47384 3.25233C6.4707 3.24506 6.46243 3.24123 6.45467 3.24376C6.44675 3.24633 6.44231 3.25458 6.44434 3.26251L6.81015 4.98054C6.8115 4.98625 6.81297 4.99161 6.81472 4.99693C6.84865 5.10144 6.96088 5.15868 7.0654 5.12473C7.16993 5.09079 7.22715 4.97856 7.1932 4.87402C7.1921 4.87061 7.19091 4.86725 7.18968 4.86406Z" fill="#FFF212"/>
<path fill-rule="evenodd" clip-rule="evenodd" d="M6.70917 5.02948L5.74856 3.55054C5.74432 3.54386 5.73553 3.54138 5.72827 3.54509C5.72088 3.54887 5.71775 3.55771 5.72102 3.56524L6.3527 5.20426C6.35495 5.20969 6.35725 5.21473 6.3598 5.21973C6.40977 5.31759 6.52961 5.35644 6.62749 5.30646C6.72536 5.25649 6.76421 5.13665 6.71424 5.03877C6.71261 5.03558 6.71088 5.03244 6.70918 5.02949L6.70917 5.02948Z" fill="#FFF212"/>
<path fill-rule="evenodd" clip-rule="evenodd" d="M6.26049 5.26831L5.08032 3.95786C5.07507 3.95192 5.06603 3.95086 5.05943 3.95565C5.0527 3.96055 5.05103 3.96976 5.0554 3.97667L5.93573 5.49669C5.93877 5.5017 5.94185 5.50633 5.94515 5.51086C6.00982 5.59971 6.13426 5.61932 6.22311 5.55467C6.31195 5.49 6.33158 5.36553 6.26691 5.2767C6.26479 5.27378 6.26262 5.27097 6.26047 5.26831H6.26049Z" fill="#FFF212"/>
<path fill-rule="evenodd" clip-rule="evenodd" d="M5.85503 5.57422L4.48529 4.46343C4.47918 4.45839 4.47007 4.45874 4.46431 4.4645C4.45843 4.47038 4.4582 4.47975 4.4636 4.48591L5.56976 5.85038C5.57356 5.85486 5.57733 5.85894 5.58127 5.86291C5.65897 5.94061 5.78498 5.94061 5.86268 5.86291C5.94038 5.78521 5.94038 5.65921 5.86268 5.5815C5.86012 5.57896 5.85754 5.57653 5.85501 5.57423L5.85503 5.57422Z" fill="#FFF212"/>
<path fill-rule="evenodd" clip-rule="evenodd" d="M5.50213 5.93947L3.9762 5.0554C3.96938 5.05136 3.96045 5.05314 3.95564 5.05972C3.95074 5.06644 3.95198 5.07574 3.95828 5.08098L5.26334 6.25665C5.2678 6.26048 5.27215 6.26394 5.27667 6.26723C5.36551 6.3319 5.48997 6.31229 5.55464 6.22344C5.61929 6.13459 5.59969 6.01013 5.51083 5.94547C5.50792 5.94335 5.50498 5.94134 5.50213 5.93947Z" fill="#FFF212"/>
<path fill-rule="evenodd" clip-rule="evenodd" d="M5.21025 6.35539L3.56479 5.72093C3.55746 5.71801 3.54887 5.72117 3.54518 5.72842C3.54139 5.73582 3.54406 5.74482 3.55111 5.74901L5.02403 6.70602C5.02904 6.70911 5.03387 6.71185 5.03885 6.71441C5.13673 6.76438 5.25658 6.72552 5.30653 6.62766C5.35651 6.52978 5.31766 6.40991 5.2198 6.35996C5.2166 6.35833 5.21338 6.3568 5.21027 6.35541L5.21025 6.35539Z" fill="#FFF212"/>
<path fill-rule="evenodd" clip-rule="evenodd" d="M4.9867 6.81207L3.26191 6.44456C3.25418 6.44282 3.24622 6.44728 3.24369 6.45503C3.24112 6.46295 3.24518 6.4714 3.25278 6.47441L4.858 7.18764C4.86342 7.18992 4.86863 7.19185 4.87394 7.19358C4.97846 7.22753 5.09071 7.1703 5.12464 7.06578C5.15858 6.96127 5.10136 6.84902 4.99685 6.81509C4.99343 6.81397 4.99002 6.81295 4.9867 6.81207Z" fill="#FFF212"/>
<path fill-rule="evenodd" clip-rule="evenodd" d="M4.83799 7.29826L3.07683 7.20688C3.06893 7.20639 3.06177 7.21203 3.06049 7.2201C3.05921 7.2283 3.06455 7.23602 3.07252 7.2378L4.76998 7.68942C4.77569 7.69082 4.78114 7.69192 4.78667 7.69278C4.89523 7.70983 4.99705 7.63567 5.01412 7.52711C5.03119 7.41855 4.95701 7.31671 4.84845 7.29965C4.8449 7.29911 4.84137 7.29863 4.83799 7.29827V7.29826Z" fill="#FFF212"/>
<path fill-rule="evenodd" clip-rule="evenodd" d="M4.76807 7.80126L3.01409 7.98438C3.0062 7.98514 3 7.99181 3 7.99998C3 8.0083 3.00647 8.01508 3.01464 8.0156L4.76162 8.19823C4.76748 8.19872 4.77304 8.19896 4.77864 8.19896C4.88853 8.19896 4.97762 8.10987 4.97762 7.99998C4.97762 7.89008 4.88853 7.80099 4.77864 7.80099C4.77505 7.80099 4.77148 7.80109 4.76807 7.80126Z" fill="#FFF212"/>
<path fill-rule="evenodd" clip-rule="evenodd" d="M4.77627 8.30915L3.07199 8.76235C3.06431 8.76431 3.05924 8.77188 3.06049 8.77993C3.06178 8.78813 3.06922 8.79385 3.07737 8.79309L4.83155 8.70231C4.83741 8.70187 4.84294 8.70124 4.84845 8.70038C4.95701 8.68331 5.03119 8.58149 5.01412 8.47293C4.99705 8.36437 4.89523 8.29018 4.78667 8.30725C4.78312 8.3078 4.77962 8.30846 4.77627 8.30915Z" fill="#FFF212"/>
<path fill-rule="evenodd" clip-rule="evenodd" d="M4.86397 8.80993L3.25227 9.52579C3.245 9.52891 3.24117 9.5372 3.2437 9.54494C3.24627 9.55286 3.2545 9.5573 3.26245 9.55529L4.98044 9.18948C4.98616 9.18813 4.99152 9.18665 4.99684 9.18491C5.10135 9.15097 5.15857 9.03874 5.12463 8.93421C5.0907 8.82969 4.97847 8.77247 4.87393 8.80642C4.87052 8.80752 4.86716 8.80871 4.86397 8.80993Z" fill="#FFF212"/>
<path fill-rule="evenodd" clip-rule="evenodd" d="M5.02954 9.29065L3.55063 10.2513C3.54396 10.2555 3.54147 10.2643 3.54518 10.2716C3.54896 10.279 3.55781 10.2821 3.56533 10.2788L5.20432 9.64713C5.20975 9.6449 5.21479 9.64259 5.21979 9.64003C5.31765 9.59006 5.3565 9.47022 5.30652 9.37234C5.25655 9.27446 5.13672 9.23563 5.03884 9.2856C5.03565 9.28723 5.03251 9.28894 5.02956 9.29064L5.02954 9.29065Z" fill="#FFF212"/>
<path fill-rule="evenodd" clip-rule="evenodd" d="M5.26829 9.73921L3.95786 10.9194C3.95192 10.9246 3.95086 10.9337 3.95565 10.9403C3.96054 10.947 3.96976 10.9487 3.97667 10.9443L5.49666 10.064C5.50167 10.0609 5.50631 10.0578 5.51083 10.0545C5.59968 9.98989 5.61929 9.86542 5.55464 9.77658C5.48997 9.68773 5.36551 9.66812 5.27668 9.73277C5.27376 9.73489 5.27094 9.73706 5.26829 9.73921Z" fill="#FFF212"/>
<path fill-rule="evenodd" clip-rule="evenodd" d="M5.57401 10.1448L4.46325 11.5146C4.45821 11.5207 4.45856 11.5298 4.46432 11.5356C4.47019 11.5414 4.47957 11.5417 4.48572 11.5363L5.85017 10.4301C5.85465 10.4263 5.85873 10.4225 5.8627 10.4186C5.94041 10.3409 5.94041 10.2149 5.8627 10.1372C5.785 10.0595 5.659 10.0595 5.5813 10.1372C5.57876 10.1397 5.57632 10.1423 5.57403 10.1448L5.57401 10.1448Z" fill="#FFF212"/>
<path fill-rule="evenodd" clip-rule="evenodd" d="M5.93918 10.4978L5.05513 12.0238C5.05109 12.0306 5.05286 12.0395 5.05944 12.0443C5.06616 12.0492 5.07546 12.048 5.08071 12.0417L6.25636 10.7366C6.26019 10.7321 6.26364 10.7278 6.26694 10.7233C6.33161 10.6344 6.31199 10.51 6.22314 10.4453C6.13429 10.3806 6.00984 10.4003 5.94518 10.4891C5.94306 10.492 5.94105 10.4949 5.93918 10.4978Z" fill="#FFF212"/>
<path fill-rule="evenodd" clip-rule="evenodd" d="M6.35525 10.7898L5.72082 12.4353C5.71788 12.4426 5.72104 12.4512 5.72829 12.4549C5.7357 12.4587 5.74469 12.456 5.74888 12.4489L6.70587 10.976C6.70897 10.971 6.7117 10.9662 6.71426 10.9612C6.76423 10.8633 6.72538 10.7435 6.62751 10.6935C6.52964 10.6435 6.40977 10.6824 6.35982 10.7802C6.35819 10.7834 6.35666 10.7867 6.35527 10.7898L6.35525 10.7898Z" fill="#FFF212"/>
<path fill-rule="evenodd" clip-rule="evenodd" d="M6.81173 11.0131L6.44422 12.738C6.44248 12.7457 6.44694 12.7537 6.4547 12.7562C6.46261 12.7588 6.47106 12.7547 6.47408 12.7471L7.18729 11.1418C7.18957 11.1364 7.1915 11.1312 7.19323 11.1259C7.22718 11.0214 7.16995 10.9091 7.06543 10.8752C6.96093 10.8413 6.84868 10.8985 6.81474 11.003C6.81363 11.0064 6.81261 11.0098 6.81173 11.0131Z" fill="#FFF212"/>
<path fill-rule="evenodd" clip-rule="evenodd" d="M7.29795 11.1617L7.20657 12.9229C7.20609 12.9308 7.21172 12.938 7.21979 12.9392C7.22799 12.9405 7.23572 12.9352 7.23749 12.9272L7.68911 11.2297C7.6905 11.224 7.6916 11.2185 7.69247 11.213C7.70952 11.1045 7.63535 11.0026 7.5268 10.9856C7.41824 10.9685 7.3164 11.0427 7.29935 11.1512C7.2988 11.1548 7.29833 11.1583 7.29797 11.1617H7.29795Z" fill="#FFF212"/>
<path fill-rule="evenodd" clip-rule="evenodd" d="M7.80129 11.2319L7.98441 12.9859C7.98516 12.9938 7.99184 13 8 13C8.00833 13 8.01511 12.9935 8.01563 12.9854L8.19826 11.2383C8.19874 11.2325 8.19898 11.2269 8.19898 11.2213C8.19898 11.1114 8.10989 11.0223 8 11.0223C7.89011 11.0223 7.80103 11.1114 7.80103 11.2213C7.80103 11.2249 7.80112 11.2285 7.80129 11.2319Z" fill="#FFF212"/>
<path fill-rule="evenodd" clip-rule="evenodd" d="M8.30879 11.2234L8.76197 12.9277C8.76392 12.9354 8.7715 12.9405 8.77956 12.9392C8.78776 12.9379 8.79346 12.9305 8.79272 12.9223L8.70194 11.1681C8.7015 11.1623 8.70087 11.1568 8.7 11.1512C8.68294 11.0427 8.58111 10.9685 8.47256 10.9856C8.364 11.0026 8.28982 11.1045 8.30689 11.213C8.30744 11.2166 8.30808 11.2201 8.30879 11.2234Z" fill="#FFF212"/>
<path fill-rule="evenodd" clip-rule="evenodd" d="M8.80969 11.1359L9.52553 12.7476C9.52865 12.7549 9.53694 12.7587 9.54469 12.7562C9.5526 12.7536 9.55704 12.7454 9.55503 12.7374L9.18922 11.0194C9.18787 11.0137 9.1864 11.0083 9.18465 11.003C9.15072 10.8985 9.03849 10.8413 8.93397 10.8752C8.82944 10.9091 8.77222 11.0214 8.80617 11.1259C8.80727 11.1293 8.80847 11.1327 8.80969 11.1359Z" fill="#FFF212"/>
<path fill-rule="evenodd" clip-rule="evenodd" d="M9.29053 10.9705L10.2512 12.4495C10.2554 12.4562 10.2642 12.4586 10.2714 12.4549C10.2788 12.4511 10.2819 12.4423 10.2787 12.4348L9.647 10.7958C9.64477 10.7903 9.64246 10.7853 9.6399 10.7803C9.58993 10.6824 9.4701 10.6436 9.37222 10.6936C9.27434 10.7435 9.23551 10.8634 9.28547 10.9612C9.28711 10.9644 9.28882 10.9676 9.29051 10.9705L9.29053 10.9705Z" fill="#FFF212"/>
<path fill-rule="evenodd" clip-rule="evenodd" d="M9.73912 10.7317L10.9193 12.0421C10.9245 12.0481 10.9336 12.0491 10.9402 12.0444C10.9469 12.0395 10.9486 12.0302 10.9442 12.0233L10.0639 10.5033C10.0608 10.4983 10.0577 10.4937 10.0544 10.4891C9.98979 10.4003 9.86532 10.3807 9.77649 10.4453C9.68764 10.51 9.66803 10.6345 9.73268 10.7233C9.7348 10.7262 9.73696 10.729 9.73912 10.7317Z" fill="#FFF212"/>
<path fill-rule="evenodd" clip-rule="evenodd" d="M10.1448 10.4258L11.5145 11.5366C11.5206 11.5416 11.5297 11.5413 11.5355 11.5355C11.5414 11.5296 11.5416 11.5203 11.5362 11.5141L10.43 10.1496C10.4262 10.1452 10.4225 10.1411 10.4185 10.1371C10.3408 10.0594 10.2148 10.0594 10.1371 10.1371C10.0594 10.2148 10.0594 10.3408 10.1371 10.4185C10.1397 10.4211 10.1423 10.4235 10.1448 10.4258L10.1448 10.4258Z" fill="#FFF212"/>
<path fill-rule="evenodd" clip-rule="evenodd" d="M10.4978 10.0606L12.0238 10.9446C12.0306 10.9487 12.0395 10.9469 12.0443 10.9403C12.0492 10.9336 12.048 10.9243 12.0417 10.919L10.7366 9.74337C10.7322 9.73953 10.7278 9.73607 10.7233 9.73277C10.6345 9.66812 10.51 9.68772 10.4453 9.77659C10.3807 9.86542 10.4003 9.98989 10.4891 10.0545C10.4921 10.0567 10.495 10.0587 10.4978 10.0606Z" fill="#FFF212"/>
<path fill-rule="evenodd" clip-rule="evenodd" d="M10.7895 9.64461L12.4349 10.2791C12.4423 10.282 12.4509 10.2788 12.4545 10.2716C12.4583 10.2642 12.4557 10.2552 12.4486 10.251L10.9757 9.29397C10.9707 9.29087 10.9659 9.28814 10.9609 9.2856C10.863 9.23563 10.7431 9.27446 10.6932 9.37234C10.6432 9.47022 10.6821 9.59007 10.7799 9.64003C10.7831 9.64166 10.7864 9.6432 10.7895 9.6446L10.7895 9.64461Z" fill="#FFF212"/>
<path fill-rule="evenodd" clip-rule="evenodd" d="M11.013 9.18787L12.7377 9.55538C12.7455 9.55709 12.7534 9.55265 12.756 9.54491C12.7585 9.53699 12.7545 9.52854 12.7469 9.52551L11.1417 8.8123C11.1362 8.81002 11.131 8.80809 11.1257 8.80635C11.0212 8.77241 10.9089 8.82964 10.875 8.93416C10.8411 9.03867 10.8983 9.15092 11.0028 9.18485C11.0062 9.18597 11.0097 9.18699 11.013 9.18787Z" fill="#FFF212"/>
<path fill-rule="evenodd" clip-rule="evenodd" d="M11.1615 8.70178L12.9226 8.79314C12.9305 8.79363 12.9377 8.78799 12.939 8.77993C12.9403 8.7717 12.9349 8.76399 12.9269 8.76222L11.2295 8.3106C11.2238 8.3092 11.2183 8.30813 11.2128 8.30725C11.1042 8.29018 11.0024 8.36437 10.9854 8.47293C10.9683 8.58149 11.0425 8.68331 11.151 8.70038C11.1546 8.70093 11.1581 8.7014 11.1615 8.70176V8.70178Z" fill="#FFF212"/>
<path fill-rule="evenodd" clip-rule="evenodd" d="M11.2315 8.19869L12.9855 8.01557C12.9934 8.01482 12.9996 8.00814 12.9996 7.99998C12.9996 7.99165 12.9931 7.98487 12.985 7.98435L11.238 7.80172C11.2321 7.80123 11.2266 7.80099 11.221 7.80099C11.1111 7.80099 11.022 7.89008 11.022 7.99998C11.022 8.10987 11.1111 8.19896 11.221 8.19896C11.2245 8.19896 11.2281 8.19886 11.2315 8.19869Z" fill="#FFF212"/>
<path fill-rule="evenodd" clip-rule="evenodd" d="M11.2232 7.69085L12.9275 7.23766C12.9352 7.23571 12.9402 7.22813 12.939 7.22009C12.9377 7.21186 12.9302 7.20617 12.9221 7.20691L11.1679 7.29771C11.1621 7.29813 11.1565 7.29878 11.151 7.29964C11.0425 7.3167 10.9683 7.41853 10.9854 7.52709C11.0024 7.63565 11.1042 7.70982 11.2128 7.69277C11.2163 7.69222 11.2199 7.69156 11.2232 7.69085Z" fill="#FFF212"/>
<path fill-rule="evenodd" clip-rule="evenodd" d="M11.1357 7.19005L12.7474 6.4742C12.7546 6.47108 12.7585 6.46279 12.7559 6.45504C12.7534 6.44713 12.7451 6.44269 12.7372 6.4447L11.0192 6.81051C11.0135 6.81186 11.0081 6.81334 11.0028 6.81508C10.8983 6.84902 10.8411 6.96125 10.875 7.06577C10.9089 7.1703 11.0212 7.22752 11.1257 7.19357C11.1291 7.19247 11.1325 7.19128 11.1357 7.19005Z" fill="#FFF212"/>
<path fill-rule="evenodd" clip-rule="evenodd" d="M10.9702 6.70935L12.4491 5.74871C12.4558 5.74447 12.4582 5.73569 12.4545 5.72843C12.4507 5.72102 12.4419 5.71791 12.4344 5.72116L10.7954 6.35287C10.79 6.3551 10.7849 6.35741 10.7799 6.35997C10.6821 6.40994 10.6432 6.52977 10.6932 6.62765C10.7432 6.72554 10.863 6.76437 10.9609 6.7144C10.9641 6.71277 10.9672 6.71106 10.9702 6.70936L10.9702 6.70935Z" fill="#FFF212"/>
<path fill-rule="evenodd" clip-rule="evenodd" d="M10.7317 6.26079L12.0421 5.0806C12.048 5.07535 12.0491 5.06631 12.0443 5.0597C12.0394 5.05297 12.0302 5.05129 12.0233 5.05569L10.5033 5.93602C10.4983 5.93908 10.4937 5.94216 10.4891 5.94546C10.4003 6.01011 10.3807 6.13458 10.4453 6.22341C10.51 6.31227 10.6345 6.33188 10.7233 6.26723C10.7262 6.26511 10.729 6.26294 10.7317 6.26079Z" fill="#FFF212"/>
<path fill-rule="evenodd" clip-rule="evenodd" d="M10.4258 5.85524L11.5366 4.48547C11.5416 4.47938 11.5413 4.47025 11.5355 4.46449C11.5296 4.45862 11.5203 4.45838 11.5141 4.46378L10.1497 5.56996C10.1452 5.57376 10.1411 5.57753 10.1371 5.58147C10.0594 5.65918 10.0594 5.78518 10.1371 5.86288C10.2148 5.94058 10.3408 5.94058 10.4185 5.86288C10.4211 5.86032 10.4235 5.85775 10.4258 5.85522L10.4258 5.85524Z" fill="#FFF212"/>
<path fill-rule="evenodd" clip-rule="evenodd" d="M10.0605 5.50221L10.9445 3.97626C10.9485 3.96944 10.9468 3.96051 10.9402 3.9557C10.9335 3.9508 10.9242 3.95204 10.9189 3.95834L9.74328 5.26342C9.73943 5.26788 9.73598 5.27223 9.73268 5.27676C9.66803 5.36559 9.68763 5.49006 9.77649 5.55473C9.86533 5.61938 9.98979 5.59978 10.0544 5.51091C10.0566 5.50801 10.0586 5.50507 10.0605 5.50221Z" fill="#FFF212"/>
<path fill-rule="evenodd" clip-rule="evenodd" d="M9.64448 5.21019L10.2789 3.5647C10.2818 3.55737 10.2787 3.54878 10.2714 3.54509C10.264 3.5413 10.255 3.54397 10.2509 3.55102L9.29384 5.02396C9.29075 5.02897 9.28802 5.03381 9.28547 5.03879C9.23551 5.13667 9.27434 5.25652 9.37222 5.30647C9.4701 5.35646 9.58995 5.3176 9.6399 5.21974C9.64153 5.21654 9.64307 5.21332 9.64447 5.21021L9.64448 5.21019Z" fill="#FFF212"/>
<path fill-rule="evenodd" clip-rule="evenodd" d="M9.18767 4.9868L9.55518 3.26197C9.55692 3.25424 9.55246 3.24628 9.5447 3.24375C9.53679 3.24118 9.52834 3.24525 9.52532 3.25285L8.81211 4.85809C8.80983 4.86351 8.8079 4.86872 8.80617 4.87403C8.77222 4.97855 8.82944 5.0908 8.93397 5.12474C9.03847 5.15867 9.15072 5.10145 9.18465 4.99694C9.18577 4.99352 9.18679 4.99011 9.18767 4.9868Z" fill="#FFF212"/>
<path fill-rule="evenodd" clip-rule="evenodd" d="M8.7014 4.83828L8.79278 3.0771C8.79327 3.0692 8.78763 3.06204 8.77955 3.06077C8.77136 3.05948 8.76363 3.06482 8.76186 3.0728L8.31024 4.77028C8.30885 4.776 8.30775 4.78145 8.30688 4.78698C8.28983 4.89554 8.364 4.99736 8.47255 5.01443C8.58111 5.0315 8.68295 4.95731 8.7 4.84876C8.70055 4.84521 8.70102 4.84167 8.70138 4.83828H8.7014Z" fill="#FFF212"/>
</g>
<rect x="0.1" y="0.1" width="15.8" height="15.8" stroke="black" stroke-opacity="0.15" stroke-width="0.2"/>
<defs>
<clipPath id="clip0_2066_2552">
<rect width="16" height="16" fill="white"/>
</clipPath>
</defs>
</svg>
